G04 #@! TF.FileFunction,Legend,Top*
%FSLAX46Y46*%
G04 Gerber Fmt 4.6, Leading zero omitted, Abs format (unit mm)*
G04 Created by KiCad (PCBNEW 4.0.3-stable) date Tue Sep  6 15:13:03 2016*
%MOMM*%
%LPD*%
G01*
G04 APERTURE LIST*
%ADD10C,0.100000*%
%ADD11C,0.150000*%
%ADD12C,0.381000*%
%ADD13C,0.304800*%
G04 APERTURE END LIST*
D10*
D11*
X151362500Y-95262500D02*
X153512500Y-95262500D01*
X150537500Y-93012500D02*
X153512500Y-93012500D01*
X149750000Y-86650000D02*
X148750000Y-86650000D01*
X148750000Y-88350000D02*
X149750000Y-88350000D01*
X156250000Y-86650000D02*
X155250000Y-86650000D01*
X155250000Y-88350000D02*
X156250000Y-88350000D01*
X153699000Y-102936000D02*
X153699000Y-103136000D01*
X153699000Y-105530000D02*
X153699000Y-105350000D01*
X150471256Y-105219643D02*
G75*
G03X153699000Y-105536000I1727744J1003643D01*
G01*
X151146994Y-105349068D02*
G75*
G03X153250000Y-105350000I1052006J1133068D01*
G01*
X153686220Y-102909274D02*
G75*
G03X150449000Y-103256000I-1497220J-1306726D01*
G01*
X153212889Y-103136747D02*
G75*
G03X151165000Y-103156000I-1013889J-1079253D01*
G01*
X160449000Y-102936000D02*
X160449000Y-103136000D01*
X160449000Y-105530000D02*
X160449000Y-105350000D01*
X157221256Y-105219643D02*
G75*
G03X160449000Y-105536000I1727744J1003643D01*
G01*
X157896994Y-105349068D02*
G75*
G03X160000000Y-105350000I1052006J1133068D01*
G01*
X160436220Y-102909274D02*
G75*
G03X157199000Y-103256000I-1497220J-1306726D01*
G01*
X159962889Y-103136747D02*
G75*
G03X157915000Y-103156000I-1013889J-1079253D01*
G01*
D12*
X131702000Y-84999120D02*
X131702000Y-94000880D01*
X127201120Y-84999120D02*
X127201120Y-94000880D01*
X127201120Y-94000880D02*
X141801040Y-94000880D01*
X141801040Y-94000880D02*
X141801040Y-84999120D01*
X141801040Y-84999120D02*
X127201120Y-84999120D01*
D11*
X168020000Y-100270000D02*
X168020000Y-102810000D01*
X168300000Y-97450000D02*
X168300000Y-99000000D01*
X168020000Y-100270000D02*
X165480000Y-100270000D01*
X165200000Y-99000000D02*
X165200000Y-97450000D01*
X165200000Y-97450000D02*
X168300000Y-97450000D01*
X165480000Y-100270000D02*
X165480000Y-102810000D01*
X165480000Y-102810000D02*
X168020000Y-102810000D01*
X130432540Y-97899100D02*
X130432540Y-106599100D01*
X136837540Y-97899100D02*
X136837540Y-106599100D01*
X136837540Y-106599100D02*
X130432540Y-106599100D01*
X131662540Y-106599100D02*
X131662540Y-97899100D01*
X130432540Y-97899100D02*
X136837540Y-97899100D01*
X146199000Y-102686000D02*
X146199000Y-102886000D01*
X146199000Y-105280000D02*
X146199000Y-105100000D01*
X142971256Y-104969643D02*
G75*
G03X146199000Y-105286000I1727744J1003643D01*
G01*
X143646994Y-105099068D02*
G75*
G03X145750000Y-105100000I1052006J1133068D01*
G01*
X146186220Y-102659274D02*
G75*
G03X142949000Y-103006000I-1497220J-1306726D01*
G01*
X145712889Y-102886747D02*
G75*
G03X143665000Y-102906000I-1013889J-1079253D01*
G01*
X145450000Y-100375000D02*
X144250000Y-100375000D01*
X144250000Y-98625000D02*
X145450000Y-98625000D01*
X153000000Y-100375000D02*
X151800000Y-100375000D01*
X151800000Y-98625000D02*
X153000000Y-98625000D01*
X161875000Y-94750000D02*
X161875000Y-95950000D01*
X160125000Y-95950000D02*
X160125000Y-94750000D01*
X159749998Y-100375000D02*
X158549998Y-100375000D01*
X158549998Y-98625000D02*
X159749998Y-98625000D01*
X151627976Y-92202381D02*
X151627976Y-91202381D01*
X151961310Y-91916667D01*
X152294643Y-91202381D01*
X152294643Y-92202381D01*
X153294643Y-92202381D02*
X152723214Y-92202381D01*
X153008928Y-92202381D02*
X153008928Y-91202381D01*
X152913690Y-91345238D01*
X152818452Y-91440476D01*
X152723214Y-91488095D01*
X149083334Y-85757143D02*
X149035715Y-85804762D01*
X148892858Y-85852381D01*
X148797620Y-85852381D01*
X148654762Y-85804762D01*
X148559524Y-85709524D01*
X148511905Y-85614286D01*
X148464286Y-85423810D01*
X148464286Y-85280952D01*
X148511905Y-85090476D01*
X148559524Y-84995238D01*
X148654762Y-84900000D01*
X148797620Y-84852381D01*
X148892858Y-84852381D01*
X149035715Y-84900000D01*
X149083334Y-84947619D01*
X150035715Y-85852381D02*
X149464286Y-85852381D01*
X149750000Y-85852381D02*
X149750000Y-84852381D01*
X149654762Y-84995238D01*
X149559524Y-85090476D01*
X149464286Y-85138095D01*
X155583334Y-85757143D02*
X155535715Y-85804762D01*
X155392858Y-85852381D01*
X155297620Y-85852381D01*
X155154762Y-85804762D01*
X155059524Y-85709524D01*
X155011905Y-85614286D01*
X154964286Y-85423810D01*
X154964286Y-85280952D01*
X155011905Y-85090476D01*
X155059524Y-84995238D01*
X155154762Y-84900000D01*
X155297620Y-84852381D01*
X155392858Y-84852381D01*
X155535715Y-84900000D01*
X155583334Y-84947619D01*
X155964286Y-84947619D02*
X156011905Y-84900000D01*
X156107143Y-84852381D01*
X156345239Y-84852381D01*
X156440477Y-84900000D01*
X156488096Y-84947619D01*
X156535715Y-85042857D01*
X156535715Y-85138095D01*
X156488096Y-85280952D01*
X155916667Y-85852381D01*
X156535715Y-85852381D01*
X151309524Y-102107143D02*
X151261905Y-102154762D01*
X151119048Y-102202381D01*
X151023810Y-102202381D01*
X150880952Y-102154762D01*
X150785714Y-102059524D01*
X150738095Y-101964286D01*
X150690476Y-101773810D01*
X150690476Y-101630952D01*
X150738095Y-101440476D01*
X150785714Y-101345238D01*
X150880952Y-101250000D01*
X151023810Y-101202381D01*
X151119048Y-101202381D01*
X151261905Y-101250000D01*
X151309524Y-101297619D01*
X151738095Y-102202381D02*
X151738095Y-101202381D01*
X151738095Y-101678571D02*
X152309524Y-101678571D01*
X152309524Y-102202381D02*
X152309524Y-101202381D01*
X153309524Y-101250000D02*
X153214286Y-101202381D01*
X153071429Y-101202381D01*
X152928571Y-101250000D01*
X152833333Y-101345238D01*
X152785714Y-101440476D01*
X152738095Y-101630952D01*
X152738095Y-101773810D01*
X152785714Y-101964286D01*
X152833333Y-102059524D01*
X152928571Y-102154762D01*
X153071429Y-102202381D01*
X153166667Y-102202381D01*
X153309524Y-102154762D01*
X153357143Y-102107143D01*
X153357143Y-101773810D01*
X153166667Y-101773810D01*
X154309524Y-102202381D02*
X153738095Y-102202381D01*
X154023809Y-102202381D02*
X154023809Y-101202381D01*
X153928571Y-101345238D01*
X153833333Y-101440476D01*
X153738095Y-101488095D01*
X154928095Y-102962381D02*
X154928095Y-101962381D01*
X155499524Y-102962381D02*
X155070952Y-102390952D01*
X155499524Y-101962381D02*
X154928095Y-102533810D01*
X157630953Y-101678571D02*
X157297619Y-101678571D01*
X157297619Y-102202381D02*
X157297619Y-101202381D01*
X157773810Y-101202381D01*
X158107143Y-101916667D02*
X158583334Y-101916667D01*
X158011905Y-102202381D02*
X158345238Y-101202381D01*
X158678572Y-102202381D01*
X158964286Y-102154762D02*
X159107143Y-102202381D01*
X159345239Y-102202381D01*
X159440477Y-102154762D01*
X159488096Y-102107143D01*
X159535715Y-102011905D01*
X159535715Y-101916667D01*
X159488096Y-101821429D01*
X159440477Y-101773810D01*
X159345239Y-101726190D01*
X159154762Y-101678571D01*
X159059524Y-101630952D01*
X159011905Y-101583333D01*
X158964286Y-101488095D01*
X158964286Y-101392857D01*
X159011905Y-101297619D01*
X159059524Y-101250000D01*
X159154762Y-101202381D01*
X159392858Y-101202381D01*
X159535715Y-101250000D01*
X159821429Y-101202381D02*
X160392858Y-101202381D01*
X160107143Y-102202381D02*
X160107143Y-101202381D01*
X161250001Y-102202381D02*
X160678572Y-102202381D01*
X160964286Y-102202381D02*
X160964286Y-101202381D01*
X160869048Y-101345238D01*
X160773810Y-101440476D01*
X160678572Y-101488095D01*
X161678095Y-102962381D02*
X161678095Y-101962381D01*
X162249524Y-102962381D02*
X161820952Y-102390952D01*
X162249524Y-101962381D02*
X161678095Y-102533810D01*
D13*
X124967009Y-90008000D02*
X126055580Y-90008000D01*
X126273294Y-90080572D01*
X126418437Y-90225715D01*
X126491009Y-90443429D01*
X126491009Y-90588572D01*
X126491009Y-88484000D02*
X126491009Y-89354857D01*
X126491009Y-88919429D02*
X124967009Y-88919429D01*
X125184723Y-89064572D01*
X125329866Y-89209714D01*
X125402437Y-89354857D01*
X143790949Y-92729428D02*
X142266949Y-92729428D01*
X143718377Y-92729428D02*
X143790949Y-92874571D01*
X143790949Y-93164857D01*
X143718377Y-93309999D01*
X143645806Y-93382571D01*
X143500663Y-93455142D01*
X143065234Y-93455142D01*
X142920091Y-93382571D01*
X142847520Y-93309999D01*
X142774949Y-93164857D01*
X142774949Y-92874571D01*
X142847520Y-92729428D01*
X143718377Y-91350571D02*
X143790949Y-91495714D01*
X143790949Y-91786000D01*
X143718377Y-91931142D01*
X143645806Y-92003714D01*
X143500663Y-92076285D01*
X143065234Y-92076285D01*
X142920091Y-92003714D01*
X142847520Y-91931142D01*
X142774949Y-91786000D01*
X142774949Y-91495714D01*
X142847520Y-91350571D01*
X143936091Y-91060285D02*
X143936091Y-89899142D01*
X142774949Y-89536285D02*
X144081234Y-89536285D01*
X144226377Y-89608856D01*
X144298949Y-89753999D01*
X144298949Y-89826571D01*
X142266949Y-89536285D02*
X142339520Y-89608856D01*
X142412091Y-89536285D01*
X142339520Y-89463713D01*
X142266949Y-89536285D01*
X142412091Y-89536285D01*
X143790949Y-88157428D02*
X142992663Y-88157428D01*
X142847520Y-88229999D01*
X142774949Y-88375142D01*
X142774949Y-88665428D01*
X142847520Y-88810571D01*
X143718377Y-88157428D02*
X143790949Y-88302571D01*
X143790949Y-88665428D01*
X143718377Y-88810571D01*
X143573234Y-88883142D01*
X143428091Y-88883142D01*
X143282949Y-88810571D01*
X143210377Y-88665428D01*
X143210377Y-88302571D01*
X143137806Y-88157428D01*
X143718377Y-86778571D02*
X143790949Y-86923714D01*
X143790949Y-87214000D01*
X143718377Y-87359142D01*
X143645806Y-87431714D01*
X143500663Y-87504285D01*
X143065234Y-87504285D01*
X142920091Y-87431714D01*
X142847520Y-87359142D01*
X142774949Y-87214000D01*
X142774949Y-86923714D01*
X142847520Y-86778571D01*
X143790949Y-86125428D02*
X142266949Y-86125428D01*
X143210377Y-85980285D02*
X143790949Y-85544856D01*
X142774949Y-85544856D02*
X143355520Y-86125428D01*
D11*
X166011905Y-94352381D02*
X166011905Y-93352381D01*
X166392858Y-93352381D01*
X166488096Y-93400000D01*
X166535715Y-93447619D01*
X166583334Y-93542857D01*
X166583334Y-93685714D01*
X166535715Y-93780952D01*
X166488096Y-93828571D01*
X166392858Y-93876190D01*
X166011905Y-93876190D01*
X167535715Y-94352381D02*
X166964286Y-94352381D01*
X167250000Y-94352381D02*
X167250000Y-93352381D01*
X167154762Y-93495238D01*
X167059524Y-93590476D01*
X166964286Y-93638095D01*
X138152381Y-102988095D02*
X137152381Y-102988095D01*
X137152381Y-102607142D01*
X137200000Y-102511904D01*
X137247619Y-102464285D01*
X137342857Y-102416666D01*
X137485714Y-102416666D01*
X137580952Y-102464285D01*
X137628571Y-102511904D01*
X137676190Y-102607142D01*
X137676190Y-102988095D01*
X137247619Y-102035714D02*
X137200000Y-101988095D01*
X137152381Y-101892857D01*
X137152381Y-101654761D01*
X137200000Y-101559523D01*
X137247619Y-101511904D01*
X137342857Y-101464285D01*
X137438095Y-101464285D01*
X137580952Y-101511904D01*
X138152381Y-102083333D01*
X138152381Y-101464285D01*
X143511905Y-102202381D02*
X143511905Y-101202381D01*
X143892858Y-101202381D01*
X143988096Y-101250000D01*
X144035715Y-101297619D01*
X144083334Y-101392857D01*
X144083334Y-101535714D01*
X144035715Y-101630952D01*
X143988096Y-101678571D01*
X143892858Y-101726190D01*
X143511905Y-101726190D01*
X144511905Y-102202381D02*
X144511905Y-101202381D01*
X144892858Y-101202381D01*
X144988096Y-101250000D01*
X145035715Y-101297619D01*
X145083334Y-101392857D01*
X145083334Y-101535714D01*
X145035715Y-101630952D01*
X144988096Y-101678571D01*
X144892858Y-101726190D01*
X144511905Y-101726190D01*
X146083334Y-102202381D02*
X145750000Y-101726190D01*
X145511905Y-102202381D02*
X145511905Y-101202381D01*
X145892858Y-101202381D01*
X145988096Y-101250000D01*
X146035715Y-101297619D01*
X146083334Y-101392857D01*
X146083334Y-101535714D01*
X146035715Y-101630952D01*
X145988096Y-101678571D01*
X145892858Y-101726190D01*
X145511905Y-101726190D01*
X147035715Y-102202381D02*
X146464286Y-102202381D01*
X146750000Y-102202381D02*
X146750000Y-101202381D01*
X146654762Y-101345238D01*
X146559524Y-101440476D01*
X146464286Y-101488095D01*
X147428095Y-102712381D02*
X147428095Y-101712381D01*
X147999524Y-102712381D02*
X147570952Y-102140952D01*
X147999524Y-101712381D02*
X147428095Y-102283810D01*
X144683334Y-97852381D02*
X144350000Y-97376190D01*
X144111905Y-97852381D02*
X144111905Y-96852381D01*
X144492858Y-96852381D01*
X144588096Y-96900000D01*
X144635715Y-96947619D01*
X144683334Y-97042857D01*
X144683334Y-97185714D01*
X144635715Y-97280952D01*
X144588096Y-97328571D01*
X144492858Y-97376190D01*
X144111905Y-97376190D01*
X145635715Y-97852381D02*
X145064286Y-97852381D01*
X145350000Y-97852381D02*
X145350000Y-96852381D01*
X145254762Y-96995238D01*
X145159524Y-97090476D01*
X145064286Y-97138095D01*
X152233334Y-97852381D02*
X151900000Y-97376190D01*
X151661905Y-97852381D02*
X151661905Y-96852381D01*
X152042858Y-96852381D01*
X152138096Y-96900000D01*
X152185715Y-96947619D01*
X152233334Y-97042857D01*
X152233334Y-97185714D01*
X152185715Y-97280952D01*
X152138096Y-97328571D01*
X152042858Y-97376190D01*
X151661905Y-97376190D01*
X152614286Y-96947619D02*
X152661905Y-96900000D01*
X152757143Y-96852381D01*
X152995239Y-96852381D01*
X153090477Y-96900000D01*
X153138096Y-96947619D01*
X153185715Y-97042857D01*
X153185715Y-97138095D01*
X153138096Y-97280952D01*
X152566667Y-97852381D01*
X153185715Y-97852381D01*
X159352381Y-95516666D02*
X158876190Y-95850000D01*
X159352381Y-96088095D02*
X158352381Y-96088095D01*
X158352381Y-95707142D01*
X158400000Y-95611904D01*
X158447619Y-95564285D01*
X158542857Y-95516666D01*
X158685714Y-95516666D01*
X158780952Y-95564285D01*
X158828571Y-95611904D01*
X158876190Y-95707142D01*
X158876190Y-96088095D01*
X158352381Y-95183333D02*
X158352381Y-94564285D01*
X158733333Y-94897619D01*
X158733333Y-94754761D01*
X158780952Y-94659523D01*
X158828571Y-94611904D01*
X158923810Y-94564285D01*
X159161905Y-94564285D01*
X159257143Y-94611904D01*
X159304762Y-94659523D01*
X159352381Y-94754761D01*
X159352381Y-95040476D01*
X159304762Y-95135714D01*
X159257143Y-95183333D01*
X158983332Y-97852381D02*
X158649998Y-97376190D01*
X158411903Y-97852381D02*
X158411903Y-96852381D01*
X158792856Y-96852381D01*
X158888094Y-96900000D01*
X158935713Y-96947619D01*
X158983332Y-97042857D01*
X158983332Y-97185714D01*
X158935713Y-97280952D01*
X158888094Y-97328571D01*
X158792856Y-97376190D01*
X158411903Y-97376190D01*
X159840475Y-97185714D02*
X159840475Y-97852381D01*
X159602379Y-96804762D02*
X159364284Y-97519048D01*
X159983332Y-97519048D01*
M02*
