M48
;DRILL file {KiCad 4.0.3-stable} date Sun Aug 21 15:47:51 2016
;FORMAT={-:-/ absolute / inch / decimal}
FMAT,2
INCH,TZ
T1C0.016
T2C0.031
T3C0.039
T4C0.040
%
G90
G05
M72
T1
X5.13Y-4.05
X5.37Y-3.935
X5.3828Y-3.8984
X5.4172Y-3.9143
X5.44Y-3.9353
T2
X5.25Y-3.7
X5.3484Y-3.7
X5.5Y-3.7
X5.5984Y-3.7
T3
X4.65Y-4.1
X4.65Y-4.25
X5.05Y-4.1
X5.05Y-4.25
X5.2Y-4.15
X5.3Y-4.15
X5.5Y-4.15
X5.58Y-3.9
X5.6Y-4.15
X5.73Y-3.7
X5.75Y-4.16
X5.85Y-4.16
X5.98Y-3.9
X6.13Y-3.7
T4
X6.02Y-4.17
X6.12Y-4.17
T3
X4.8598Y-3.7106G85X4.8598Y-3.7893
G05
X5.0271Y-3.9587G85X4.9485Y-3.9587
G05
X5.0961Y-3.7008G85X5.0961Y-3.7992
G05
T0
M30
