G04 #@! TF.FileFunction,Soldermask,Top*
%FSLAX46Y46*%
G04 Gerber Fmt 4.6, Leading zero omitted, Abs format (unit mm)*
G04 Created by KiCad (PCBNEW 4.0.3-stable) date Tue Sep  6 15:13:03 2016*
%MOMM*%
%LPD*%
G01*
G04 APERTURE LIST*
%ADD10C,0.100000*%
%ADD11R,2.150000X0.700000*%
%ADD12R,1.275000X1.125000*%
%ADD13R,1.900000X1.650000*%
%ADD14R,2.400000X2.400000*%
%ADD15C,2.400000*%
%ADD16O,4.400500X2.398980*%
%ADD17O,2.398980X4.400500*%
%ADD18O,2.398980X4.900880*%
%ADD19R,2.432000X2.432000*%
%ADD20O,2.432000X2.432000*%
%ADD21R,1.750000X0.800000*%
%ADD22O,1.350000X1.650000*%
%ADD23O,1.950000X1.400000*%
%ADD24R,1.900000X1.700000*%
%ADD25R,1.700000X1.900000*%
G04 APERTURE END LIST*
D10*
D11*
X150487500Y-93387500D03*
X150487500Y-93887500D03*
X150487500Y-94387500D03*
X150487500Y-94887500D03*
X154387500Y-94887500D03*
X154387500Y-94387500D03*
X154387500Y-93887500D03*
X154387500Y-93387500D03*
D12*
X152875000Y-94500000D03*
X152875000Y-93775000D03*
X152000000Y-94500000D03*
X152000000Y-93775000D03*
D13*
X148000000Y-87500000D03*
X150500000Y-87500000D03*
X154500000Y-87500000D03*
X157000000Y-87500000D03*
D14*
X153500000Y-104250000D03*
D15*
X150960000Y-104250000D03*
D14*
X160250000Y-104250000D03*
D15*
X157710000Y-104250000D03*
D16*
X138001200Y-94800980D03*
D17*
X134750000Y-89500000D03*
D18*
X140752020Y-89500000D03*
D19*
X166750000Y-99000000D03*
D20*
X166750000Y-101540000D03*
D21*
X135812540Y-100949100D03*
X135812540Y-101599100D03*
X135812540Y-102249100D03*
X135812540Y-102899100D03*
X135812540Y-103549100D03*
D22*
X135812540Y-99749100D03*
X135812540Y-104749100D03*
D23*
X133112540Y-98749100D03*
X133112540Y-105749100D03*
D14*
X146000000Y-104000000D03*
D15*
X143460000Y-104000000D03*
D24*
X143500000Y-99500000D03*
X146200000Y-99500000D03*
X151050000Y-99500000D03*
X153750000Y-99500000D03*
D25*
X161000000Y-96700000D03*
X161000000Y-94000000D03*
D24*
X157799998Y-99500000D03*
X160499998Y-99500000D03*
M02*
