G04 #@! TF.FileFunction,Copper,L1,Top,Signal*
%FSLAX46Y46*%
G04 Gerber Fmt 4.6, Leading zero omitted, Abs format (unit mm)*
G04 Created by KiCad (PCBNEW 4.0.3-stable) date Tue Sep  6 15:13:03 2016*
%MOMM*%
%LPD*%
G01*
G04 APERTURE LIST*
%ADD10C,0.100000*%
%ADD11R,1.750000X0.300000*%
%ADD12R,0.875000X0.725000*%
%ADD13R,1.500000X1.250000*%
%ADD14R,2.000000X2.000000*%
%ADD15C,2.000000*%
%ADD16O,4.000500X1.998980*%
%ADD17O,1.998980X4.000500*%
%ADD18O,1.998980X4.500880*%
%ADD19R,2.032000X2.032000*%
%ADD20O,2.032000X2.032000*%
%ADD21R,1.350000X0.400000*%
%ADD22O,0.950000X1.250000*%
%ADD23O,1.550000X1.000000*%
%ADD24R,1.500000X1.300000*%
%ADD25R,1.300000X1.500000*%
%ADD26C,0.600000*%
%ADD27C,0.500000*%
%ADD28C,0.250000*%
G04 APERTURE END LIST*
D10*
D11*
X150487500Y-93387500D03*
X150487500Y-93887500D03*
X150487500Y-94387500D03*
X150487500Y-94887500D03*
X154387500Y-94887500D03*
X154387500Y-94387500D03*
X154387500Y-93887500D03*
X154387500Y-93387500D03*
D12*
X152875000Y-94500000D03*
X152875000Y-93775000D03*
X152000000Y-94500000D03*
X152000000Y-93775000D03*
D13*
X148000000Y-87500000D03*
X150500000Y-87500000D03*
X154500000Y-87500000D03*
X157000000Y-87500000D03*
D14*
X153500000Y-104250000D03*
D15*
X150960000Y-104250000D03*
D14*
X160250000Y-104250000D03*
D15*
X157710000Y-104250000D03*
D16*
X138001200Y-94800980D03*
D17*
X134750000Y-89500000D03*
D18*
X140752020Y-89500000D03*
D19*
X166750000Y-99000000D03*
D20*
X166750000Y-101540000D03*
D21*
X135812540Y-100949100D03*
X135812540Y-101599100D03*
X135812540Y-102249100D03*
X135812540Y-102899100D03*
X135812540Y-103549100D03*
D22*
X135812540Y-99749100D03*
X135812540Y-104749100D03*
D23*
X133112540Y-98749100D03*
X133112540Y-105749100D03*
D14*
X146000000Y-104000000D03*
D15*
X143460000Y-104000000D03*
D24*
X143500000Y-99500000D03*
X146200000Y-99500000D03*
X151050000Y-99500000D03*
X153750000Y-99500000D03*
D25*
X161000000Y-96700000D03*
X161000000Y-94000000D03*
D24*
X157799998Y-99500000D03*
X160499998Y-99500000D03*
D26*
X157000000Y-89000000D03*
X148000000Y-89000000D03*
X159250000Y-96750000D03*
X152000000Y-93775000D03*
X152000000Y-94500000D03*
X152875000Y-94500000D03*
X152875000Y-93775000D03*
D27*
X157000000Y-87500000D02*
X157000000Y-89000000D01*
X148000000Y-87500000D02*
X148000000Y-89000000D01*
X161000000Y-96700000D02*
X159300000Y-96700000D01*
X159300000Y-96700000D02*
X159250000Y-96750000D01*
X135812540Y-103549100D02*
X135812540Y-104749100D01*
X166750000Y-97484000D02*
X166750000Y-99000000D01*
X157000000Y-87500000D02*
X158250000Y-87500000D01*
X158250000Y-87500000D02*
X166750000Y-96000000D01*
X166750000Y-96000000D02*
X166750000Y-97484000D01*
X157000000Y-87500000D02*
X157125000Y-87500000D01*
X157000000Y-87500000D02*
X156875000Y-87500000D01*
X155237501Y-94987501D02*
X151722501Y-94987501D01*
X153152499Y-94987501D02*
X155237501Y-94987501D01*
X151812501Y-93647503D02*
X153152499Y-94987501D01*
X151722501Y-94987501D02*
X150487500Y-94987501D01*
D28*
X135812540Y-104899100D02*
X135812540Y-104749100D01*
D27*
X150960000Y-104250000D02*
X149759999Y-105450001D01*
X143495788Y-105450001D02*
X143460000Y-105414213D01*
X149759999Y-105450001D02*
X143495788Y-105450001D01*
X143460000Y-105414213D02*
X143460000Y-104000000D01*
X135812540Y-100949100D02*
X136987540Y-100949100D01*
X140752020Y-101292020D02*
X143460000Y-104000000D01*
X150960000Y-104250000D02*
X150960000Y-105664213D01*
X150960000Y-105664213D02*
X150995788Y-105700001D01*
X150995788Y-105700001D02*
X156259999Y-105700001D01*
X156259999Y-105700001D02*
X156710001Y-105249999D01*
X156710001Y-105249999D02*
X157710000Y-104250000D01*
X140752020Y-97184620D02*
X140752020Y-101292020D01*
X138750000Y-99186640D02*
X140752020Y-97184620D01*
X136987540Y-100949100D02*
X138750000Y-99186640D01*
X146287499Y-93287499D02*
X147750000Y-93287499D01*
X147750000Y-93287499D02*
X149252499Y-93287499D01*
X149625000Y-85500000D02*
X146251510Y-85500000D01*
X146251510Y-85500000D02*
X142251510Y-89500000D01*
X142251510Y-89500000D02*
X140752020Y-89500000D01*
X150500000Y-87500000D02*
X150500000Y-86375000D01*
X150500000Y-86375000D02*
X149625000Y-85500000D01*
X140752020Y-97184620D02*
X140752020Y-92250440D01*
X140752020Y-92250440D02*
X140752020Y-89500000D01*
X142500000Y-89500000D02*
X146287499Y-93287499D01*
X149252499Y-93287499D02*
X150487500Y-93287499D01*
X140752020Y-89500000D02*
X142500000Y-89500000D01*
X154500000Y-88625000D02*
X154500000Y-92250000D01*
X154500000Y-92250000D02*
X154500000Y-92750000D01*
X162010038Y-92250000D02*
X154500000Y-92250000D01*
X166750000Y-101540000D02*
X165313160Y-101540000D01*
X165313160Y-101540000D02*
X162750000Y-98976840D01*
X162750000Y-98976840D02*
X162750000Y-92989962D01*
X162750000Y-92989962D02*
X162010038Y-92250000D01*
X154500000Y-92750000D02*
X154500000Y-93287499D01*
X154500000Y-87500000D02*
X154625000Y-87500000D01*
X167533999Y-101510839D02*
X167563160Y-101540000D01*
X154500000Y-87500000D02*
X154500000Y-88625000D01*
D28*
X143500000Y-99500000D02*
X143500000Y-98600000D01*
X143500000Y-98600000D02*
X148212500Y-93887500D01*
X148212500Y-93887500D02*
X149362500Y-93887500D01*
X149362500Y-93887500D02*
X150487500Y-93887500D01*
X150487500Y-94387500D02*
X149362500Y-94387500D01*
X149362500Y-94387500D02*
X149250000Y-94500000D01*
X149250000Y-94500000D02*
X148236410Y-94500000D01*
X148236410Y-94500000D02*
X146500000Y-96236410D01*
X146500000Y-96236410D02*
X146500000Y-98000000D01*
X146500000Y-98000000D02*
X148550000Y-98000000D01*
X148550000Y-98000000D02*
X150050000Y-99500000D01*
X150050000Y-99500000D02*
X151050000Y-99500000D01*
X154387500Y-94387500D02*
X155512500Y-94387500D01*
X155512500Y-94387500D02*
X157799998Y-96674998D01*
X157799998Y-96674998D02*
X157799998Y-98600000D01*
X157799998Y-98600000D02*
X157799998Y-99500000D01*
X154387500Y-93887500D02*
X160887500Y-93887500D01*
X160887500Y-93887500D02*
X161000000Y-94000000D01*
X153750000Y-99500000D02*
X153750000Y-104000000D01*
X153750000Y-104000000D02*
X153500000Y-104250000D01*
X160499998Y-99500000D02*
X160499998Y-104000002D01*
X160499998Y-104000002D02*
X160250000Y-104250000D01*
X160249998Y-104249998D02*
X160250000Y-104250000D01*
X146200000Y-99500000D02*
X146200000Y-103800000D01*
X146200000Y-103800000D02*
X146000000Y-104000000D01*
X145950000Y-103950000D02*
X146000000Y-104000000D01*
M02*
