G04 #@! TF.FileFunction,Copper,L2,Bot,Signal*
%FSLAX46Y46*%
G04 Gerber Fmt 4.6, Leading zero omitted, Abs format (unit mm)*
G04 Created by KiCad (PCBNEW 4.0.3-stable) date Tue Sep  6 15:13:03 2016*
%MOMM*%
%LPD*%
G01*
G04 APERTURE LIST*
%ADD10C,0.100000*%
%ADD11R,2.000000X2.000000*%
%ADD12C,2.000000*%
%ADD13O,4.000500X1.998980*%
%ADD14O,1.998980X4.000500*%
%ADD15O,1.998980X4.500880*%
%ADD16R,2.032000X2.032000*%
%ADD17O,2.032000X2.032000*%
%ADD18O,0.950000X1.250000*%
%ADD19O,1.550000X1.000000*%
%ADD20C,0.600000*%
%ADD21C,0.254000*%
G04 APERTURE END LIST*
D10*
D11*
X153500000Y-104250000D03*
D12*
X150960000Y-104250000D03*
D11*
X160250000Y-104250000D03*
D12*
X157710000Y-104250000D03*
D13*
X138001200Y-94800980D03*
D14*
X134750000Y-89500000D03*
D15*
X140752020Y-89500000D03*
D16*
X166750000Y-99000000D03*
D17*
X166750000Y-101540000D03*
D18*
X135812540Y-99749100D03*
X135812540Y-104749100D03*
D19*
X133112540Y-98749100D03*
X133112540Y-105749100D03*
D11*
X146000000Y-104000000D03*
D12*
X143460000Y-104000000D03*
D20*
X157000000Y-89000000D03*
X148000000Y-89000000D03*
X159250000Y-96750000D03*
X152000000Y-93775000D03*
X152000000Y-94500000D03*
X152875000Y-94500000D03*
X152875000Y-93775000D03*
D21*
G36*
X168290000Y-97609974D02*
X168125698Y-97445673D01*
X167892309Y-97349000D01*
X167035750Y-97349000D01*
X166877000Y-97507750D01*
X166877000Y-98873000D01*
X166897000Y-98873000D01*
X166897000Y-99127000D01*
X166877000Y-99127000D01*
X166877000Y-99147000D01*
X166623000Y-99147000D01*
X166623000Y-99127000D01*
X165257750Y-99127000D01*
X165099000Y-99285750D01*
X165099000Y-100142310D01*
X165195673Y-100375699D01*
X165374302Y-100554327D01*
X165416966Y-100571999D01*
X165192330Y-100908190D01*
X165066655Y-101540000D01*
X165192330Y-102171810D01*
X165550222Y-102707433D01*
X166085845Y-103065325D01*
X166717655Y-103191000D01*
X166782345Y-103191000D01*
X167414155Y-103065325D01*
X167949778Y-102707433D01*
X168290000Y-102198255D01*
X168290000Y-106790000D01*
X133810561Y-106790000D01*
X133939218Y-106749102D01*
X134279908Y-106461863D01*
X134481659Y-106050974D01*
X134355494Y-105876100D01*
X133239540Y-105876100D01*
X133239540Y-105896100D01*
X132985540Y-105896100D01*
X132985540Y-105876100D01*
X132965540Y-105876100D01*
X132965540Y-105622100D01*
X132985540Y-105622100D01*
X132985540Y-104614100D01*
X133239540Y-104614100D01*
X133239540Y-105622100D01*
X134355494Y-105622100D01*
X134481659Y-105447226D01*
X134286731Y-105050231D01*
X134711311Y-105050231D01*
X134852972Y-105460149D01*
X135140719Y-105784652D01*
X135514602Y-105968368D01*
X135685540Y-105841834D01*
X135685540Y-104876100D01*
X135939540Y-104876100D01*
X135939540Y-105841834D01*
X136110478Y-105968368D01*
X136484361Y-105784652D01*
X136772108Y-105460149D01*
X136913769Y-105050231D01*
X136765103Y-104876100D01*
X135939540Y-104876100D01*
X135685540Y-104876100D01*
X134859977Y-104876100D01*
X134711311Y-105050231D01*
X134286731Y-105050231D01*
X134279908Y-105036337D01*
X133939218Y-104749098D01*
X133514540Y-104614100D01*
X133239540Y-104614100D01*
X132985540Y-104614100D01*
X132710540Y-104614100D01*
X132460000Y-104693742D01*
X132460000Y-104447969D01*
X134711311Y-104447969D01*
X134859977Y-104622100D01*
X135685540Y-104622100D01*
X135685540Y-103656366D01*
X135939540Y-103656366D01*
X135939540Y-104622100D01*
X136765103Y-104622100D01*
X136913769Y-104447969D01*
X136870857Y-104323795D01*
X141824716Y-104323795D01*
X142073106Y-104924943D01*
X142532637Y-105385278D01*
X143133352Y-105634716D01*
X143783795Y-105635284D01*
X144384943Y-105386894D01*
X144451574Y-105320379D01*
X144535910Y-105451441D01*
X144748110Y-105596431D01*
X145000000Y-105647440D01*
X147000000Y-105647440D01*
X147235317Y-105603162D01*
X147451441Y-105464090D01*
X147596431Y-105251890D01*
X147647440Y-105000000D01*
X147647440Y-104573795D01*
X149324716Y-104573795D01*
X149573106Y-105174943D01*
X150032637Y-105635278D01*
X150633352Y-105884716D01*
X151283795Y-105885284D01*
X151884943Y-105636894D01*
X151951574Y-105570379D01*
X152035910Y-105701441D01*
X152248110Y-105846431D01*
X152500000Y-105897440D01*
X154500000Y-105897440D01*
X154735317Y-105853162D01*
X154951441Y-105714090D01*
X155096431Y-105501890D01*
X155147440Y-105250000D01*
X155147440Y-104573795D01*
X156074716Y-104573795D01*
X156323106Y-105174943D01*
X156782637Y-105635278D01*
X157383352Y-105884716D01*
X158033795Y-105885284D01*
X158634943Y-105636894D01*
X158701574Y-105570379D01*
X158785910Y-105701441D01*
X158998110Y-105846431D01*
X159250000Y-105897440D01*
X161250000Y-105897440D01*
X161485317Y-105853162D01*
X161701441Y-105714090D01*
X161846431Y-105501890D01*
X161897440Y-105250000D01*
X161897440Y-103250000D01*
X161853162Y-103014683D01*
X161714090Y-102798559D01*
X161501890Y-102653569D01*
X161250000Y-102602560D01*
X159250000Y-102602560D01*
X159014683Y-102646838D01*
X158798559Y-102785910D01*
X158701090Y-102928561D01*
X158637363Y-102864722D01*
X158036648Y-102615284D01*
X157386205Y-102614716D01*
X156785057Y-102863106D01*
X156324722Y-103322637D01*
X156075284Y-103923352D01*
X156074716Y-104573795D01*
X155147440Y-104573795D01*
X155147440Y-103250000D01*
X155103162Y-103014683D01*
X154964090Y-102798559D01*
X154751890Y-102653569D01*
X154500000Y-102602560D01*
X152500000Y-102602560D01*
X152264683Y-102646838D01*
X152048559Y-102785910D01*
X151951090Y-102928561D01*
X151887363Y-102864722D01*
X151286648Y-102615284D01*
X150636205Y-102614716D01*
X150035057Y-102863106D01*
X149574722Y-103322637D01*
X149325284Y-103923352D01*
X149324716Y-104573795D01*
X147647440Y-104573795D01*
X147647440Y-103000000D01*
X147603162Y-102764683D01*
X147464090Y-102548559D01*
X147251890Y-102403569D01*
X147000000Y-102352560D01*
X145000000Y-102352560D01*
X144764683Y-102396838D01*
X144548559Y-102535910D01*
X144451090Y-102678561D01*
X144387363Y-102614722D01*
X143786648Y-102365284D01*
X143136205Y-102364716D01*
X142535057Y-102613106D01*
X142074722Y-103072637D01*
X141825284Y-103673352D01*
X141824716Y-104323795D01*
X136870857Y-104323795D01*
X136772108Y-104038051D01*
X136484361Y-103713548D01*
X136110478Y-103529832D01*
X135939540Y-103656366D01*
X135685540Y-103656366D01*
X135514602Y-103529832D01*
X135140719Y-103713548D01*
X134852972Y-104038051D01*
X134711311Y-104447969D01*
X132460000Y-104447969D01*
X132460000Y-100050231D01*
X134711311Y-100050231D01*
X134852972Y-100460149D01*
X135140719Y-100784652D01*
X135514602Y-100968368D01*
X135685540Y-100841834D01*
X135685540Y-99876100D01*
X135939540Y-99876100D01*
X135939540Y-100841834D01*
X136110478Y-100968368D01*
X136484361Y-100784652D01*
X136772108Y-100460149D01*
X136913769Y-100050231D01*
X136765103Y-99876100D01*
X135939540Y-99876100D01*
X135685540Y-99876100D01*
X134859977Y-99876100D01*
X134711311Y-100050231D01*
X132460000Y-100050231D01*
X132460000Y-99804458D01*
X132710540Y-99884100D01*
X132985540Y-99884100D01*
X132985540Y-98876100D01*
X133239540Y-98876100D01*
X133239540Y-99884100D01*
X133514540Y-99884100D01*
X133939218Y-99749102D01*
X134279908Y-99461863D01*
X134286730Y-99447969D01*
X134711311Y-99447969D01*
X134859977Y-99622100D01*
X135685540Y-99622100D01*
X135685540Y-98656366D01*
X135939540Y-98656366D01*
X135939540Y-99622100D01*
X136765103Y-99622100D01*
X136913769Y-99447969D01*
X136772108Y-99038051D01*
X136484361Y-98713548D01*
X136110478Y-98529832D01*
X135939540Y-98656366D01*
X135685540Y-98656366D01*
X135514602Y-98529832D01*
X135140719Y-98713548D01*
X134852972Y-99038051D01*
X134711311Y-99447969D01*
X134286730Y-99447969D01*
X134481659Y-99050974D01*
X134355494Y-98876100D01*
X133239540Y-98876100D01*
X132985540Y-98876100D01*
X132965540Y-98876100D01*
X132965540Y-98622100D01*
X132985540Y-98622100D01*
X132985540Y-97614100D01*
X133239540Y-97614100D01*
X133239540Y-98622100D01*
X134355494Y-98622100D01*
X134481659Y-98447226D01*
X134279908Y-98036337D01*
X134068018Y-97857690D01*
X165099000Y-97857690D01*
X165099000Y-98714250D01*
X165257750Y-98873000D01*
X166623000Y-98873000D01*
X166623000Y-97507750D01*
X166464250Y-97349000D01*
X165607691Y-97349000D01*
X165374302Y-97445673D01*
X165195673Y-97624301D01*
X165099000Y-97857690D01*
X134068018Y-97857690D01*
X133939218Y-97749098D01*
X133514540Y-97614100D01*
X133239540Y-97614100D01*
X132985540Y-97614100D01*
X132710540Y-97614100D01*
X132460000Y-97693742D01*
X132460000Y-94800980D01*
X135314322Y-94800980D01*
X135438740Y-95426472D01*
X135793053Y-95956739D01*
X136323320Y-96311052D01*
X136948812Y-96435470D01*
X139053588Y-96435470D01*
X139679080Y-96311052D01*
X140209347Y-95956739D01*
X140563660Y-95426472D01*
X140688078Y-94800980D01*
X140563660Y-94175488D01*
X140209347Y-93645221D01*
X139679080Y-93290908D01*
X139053588Y-93166490D01*
X136948812Y-93166490D01*
X136323320Y-93290908D01*
X135793053Y-93645221D01*
X135438740Y-94175488D01*
X135314322Y-94800980D01*
X132460000Y-94800980D01*
X132460000Y-89627000D01*
X133115510Y-89627000D01*
X133115510Y-90627760D01*
X133288529Y-91243585D01*
X133684044Y-91746322D01*
X134241841Y-92059433D01*
X134369646Y-92090379D01*
X134623000Y-91971025D01*
X134623000Y-89627000D01*
X134877000Y-89627000D01*
X134877000Y-91971025D01*
X135130354Y-92090379D01*
X135258159Y-92059433D01*
X135815956Y-91746322D01*
X136211471Y-91243585D01*
X136384490Y-90627760D01*
X136384490Y-89627000D01*
X134877000Y-89627000D01*
X134623000Y-89627000D01*
X133115510Y-89627000D01*
X132460000Y-89627000D01*
X132460000Y-88372240D01*
X133115510Y-88372240D01*
X133115510Y-89373000D01*
X134623000Y-89373000D01*
X134623000Y-87028975D01*
X134877000Y-87028975D01*
X134877000Y-89373000D01*
X136384490Y-89373000D01*
X136384490Y-88372240D01*
X136333998Y-88192521D01*
X139117530Y-88192521D01*
X139117530Y-90807479D01*
X139241948Y-91432971D01*
X139596261Y-91963238D01*
X140126528Y-92317551D01*
X140752020Y-92441969D01*
X141377512Y-92317551D01*
X141907779Y-91963238D01*
X142050260Y-91750000D01*
X149373000Y-91750000D01*
X149373000Y-96250000D01*
X149381685Y-96296159D01*
X149408965Y-96338553D01*
X149450590Y-96366994D01*
X149500000Y-96377000D01*
X155500000Y-96377000D01*
X155546159Y-96368315D01*
X155588553Y-96341035D01*
X155616994Y-96299410D01*
X155627000Y-96250000D01*
X155627000Y-91750000D01*
X155618315Y-91703841D01*
X155591035Y-91661447D01*
X155549410Y-91633006D01*
X155500000Y-91623000D01*
X149500000Y-91623000D01*
X149453841Y-91631685D01*
X149411447Y-91658965D01*
X149383006Y-91700590D01*
X149373000Y-91750000D01*
X142050260Y-91750000D01*
X142262092Y-91432971D01*
X142386510Y-90807479D01*
X142386510Y-88192521D01*
X142262092Y-87567029D01*
X141907779Y-87036762D01*
X141377512Y-86682449D01*
X140752020Y-86558031D01*
X140126528Y-86682449D01*
X139596261Y-87036762D01*
X139241948Y-87567029D01*
X139117530Y-88192521D01*
X136333998Y-88192521D01*
X136211471Y-87756415D01*
X135815956Y-87253678D01*
X135258159Y-86940567D01*
X135130354Y-86909621D01*
X134877000Y-87028975D01*
X134623000Y-87028975D01*
X134369646Y-86909621D01*
X134241841Y-86940567D01*
X133684044Y-87253678D01*
X133288529Y-87756415D01*
X133115510Y-88372240D01*
X132460000Y-88372240D01*
X132460000Y-84960000D01*
X168290000Y-84960000D01*
X168290000Y-97609974D01*
X168290000Y-97609974D01*
G37*
X168290000Y-97609974D02*
X168125698Y-97445673D01*
X167892309Y-97349000D01*
X167035750Y-97349000D01*
X166877000Y-97507750D01*
X166877000Y-98873000D01*
X166897000Y-98873000D01*
X166897000Y-99127000D01*
X166877000Y-99127000D01*
X166877000Y-99147000D01*
X166623000Y-99147000D01*
X166623000Y-99127000D01*
X165257750Y-99127000D01*
X165099000Y-99285750D01*
X165099000Y-100142310D01*
X165195673Y-100375699D01*
X165374302Y-100554327D01*
X165416966Y-100571999D01*
X165192330Y-100908190D01*
X165066655Y-101540000D01*
X165192330Y-102171810D01*
X165550222Y-102707433D01*
X166085845Y-103065325D01*
X166717655Y-103191000D01*
X166782345Y-103191000D01*
X167414155Y-103065325D01*
X167949778Y-102707433D01*
X168290000Y-102198255D01*
X168290000Y-106790000D01*
X133810561Y-106790000D01*
X133939218Y-106749102D01*
X134279908Y-106461863D01*
X134481659Y-106050974D01*
X134355494Y-105876100D01*
X133239540Y-105876100D01*
X133239540Y-105896100D01*
X132985540Y-105896100D01*
X132985540Y-105876100D01*
X132965540Y-105876100D01*
X132965540Y-105622100D01*
X132985540Y-105622100D01*
X132985540Y-104614100D01*
X133239540Y-104614100D01*
X133239540Y-105622100D01*
X134355494Y-105622100D01*
X134481659Y-105447226D01*
X134286731Y-105050231D01*
X134711311Y-105050231D01*
X134852972Y-105460149D01*
X135140719Y-105784652D01*
X135514602Y-105968368D01*
X135685540Y-105841834D01*
X135685540Y-104876100D01*
X135939540Y-104876100D01*
X135939540Y-105841834D01*
X136110478Y-105968368D01*
X136484361Y-105784652D01*
X136772108Y-105460149D01*
X136913769Y-105050231D01*
X136765103Y-104876100D01*
X135939540Y-104876100D01*
X135685540Y-104876100D01*
X134859977Y-104876100D01*
X134711311Y-105050231D01*
X134286731Y-105050231D01*
X134279908Y-105036337D01*
X133939218Y-104749098D01*
X133514540Y-104614100D01*
X133239540Y-104614100D01*
X132985540Y-104614100D01*
X132710540Y-104614100D01*
X132460000Y-104693742D01*
X132460000Y-104447969D01*
X134711311Y-104447969D01*
X134859977Y-104622100D01*
X135685540Y-104622100D01*
X135685540Y-103656366D01*
X135939540Y-103656366D01*
X135939540Y-104622100D01*
X136765103Y-104622100D01*
X136913769Y-104447969D01*
X136870857Y-104323795D01*
X141824716Y-104323795D01*
X142073106Y-104924943D01*
X142532637Y-105385278D01*
X143133352Y-105634716D01*
X143783795Y-105635284D01*
X144384943Y-105386894D01*
X144451574Y-105320379D01*
X144535910Y-105451441D01*
X144748110Y-105596431D01*
X145000000Y-105647440D01*
X147000000Y-105647440D01*
X147235317Y-105603162D01*
X147451441Y-105464090D01*
X147596431Y-105251890D01*
X147647440Y-105000000D01*
X147647440Y-104573795D01*
X149324716Y-104573795D01*
X149573106Y-105174943D01*
X150032637Y-105635278D01*
X150633352Y-105884716D01*
X151283795Y-105885284D01*
X151884943Y-105636894D01*
X151951574Y-105570379D01*
X152035910Y-105701441D01*
X152248110Y-105846431D01*
X152500000Y-105897440D01*
X154500000Y-105897440D01*
X154735317Y-105853162D01*
X154951441Y-105714090D01*
X155096431Y-105501890D01*
X155147440Y-105250000D01*
X155147440Y-104573795D01*
X156074716Y-104573795D01*
X156323106Y-105174943D01*
X156782637Y-105635278D01*
X157383352Y-105884716D01*
X158033795Y-105885284D01*
X158634943Y-105636894D01*
X158701574Y-105570379D01*
X158785910Y-105701441D01*
X158998110Y-105846431D01*
X159250000Y-105897440D01*
X161250000Y-105897440D01*
X161485317Y-105853162D01*
X161701441Y-105714090D01*
X161846431Y-105501890D01*
X161897440Y-105250000D01*
X161897440Y-103250000D01*
X161853162Y-103014683D01*
X161714090Y-102798559D01*
X161501890Y-102653569D01*
X161250000Y-102602560D01*
X159250000Y-102602560D01*
X159014683Y-102646838D01*
X158798559Y-102785910D01*
X158701090Y-102928561D01*
X158637363Y-102864722D01*
X158036648Y-102615284D01*
X157386205Y-102614716D01*
X156785057Y-102863106D01*
X156324722Y-103322637D01*
X156075284Y-103923352D01*
X156074716Y-104573795D01*
X155147440Y-104573795D01*
X155147440Y-103250000D01*
X155103162Y-103014683D01*
X154964090Y-102798559D01*
X154751890Y-102653569D01*
X154500000Y-102602560D01*
X152500000Y-102602560D01*
X152264683Y-102646838D01*
X152048559Y-102785910D01*
X151951090Y-102928561D01*
X151887363Y-102864722D01*
X151286648Y-102615284D01*
X150636205Y-102614716D01*
X150035057Y-102863106D01*
X149574722Y-103322637D01*
X149325284Y-103923352D01*
X149324716Y-104573795D01*
X147647440Y-104573795D01*
X147647440Y-103000000D01*
X147603162Y-102764683D01*
X147464090Y-102548559D01*
X147251890Y-102403569D01*
X147000000Y-102352560D01*
X145000000Y-102352560D01*
X144764683Y-102396838D01*
X144548559Y-102535910D01*
X144451090Y-102678561D01*
X144387363Y-102614722D01*
X143786648Y-102365284D01*
X143136205Y-102364716D01*
X142535057Y-102613106D01*
X142074722Y-103072637D01*
X141825284Y-103673352D01*
X141824716Y-104323795D01*
X136870857Y-104323795D01*
X136772108Y-104038051D01*
X136484361Y-103713548D01*
X136110478Y-103529832D01*
X135939540Y-103656366D01*
X135685540Y-103656366D01*
X135514602Y-103529832D01*
X135140719Y-103713548D01*
X134852972Y-104038051D01*
X134711311Y-104447969D01*
X132460000Y-104447969D01*
X132460000Y-100050231D01*
X134711311Y-100050231D01*
X134852972Y-100460149D01*
X135140719Y-100784652D01*
X135514602Y-100968368D01*
X135685540Y-100841834D01*
X135685540Y-99876100D01*
X135939540Y-99876100D01*
X135939540Y-100841834D01*
X136110478Y-100968368D01*
X136484361Y-100784652D01*
X136772108Y-100460149D01*
X136913769Y-100050231D01*
X136765103Y-99876100D01*
X135939540Y-99876100D01*
X135685540Y-99876100D01*
X134859977Y-99876100D01*
X134711311Y-100050231D01*
X132460000Y-100050231D01*
X132460000Y-99804458D01*
X132710540Y-99884100D01*
X132985540Y-99884100D01*
X132985540Y-98876100D01*
X133239540Y-98876100D01*
X133239540Y-99884100D01*
X133514540Y-99884100D01*
X133939218Y-99749102D01*
X134279908Y-99461863D01*
X134286730Y-99447969D01*
X134711311Y-99447969D01*
X134859977Y-99622100D01*
X135685540Y-99622100D01*
X135685540Y-98656366D01*
X135939540Y-98656366D01*
X135939540Y-99622100D01*
X136765103Y-99622100D01*
X136913769Y-99447969D01*
X136772108Y-99038051D01*
X136484361Y-98713548D01*
X136110478Y-98529832D01*
X135939540Y-98656366D01*
X135685540Y-98656366D01*
X135514602Y-98529832D01*
X135140719Y-98713548D01*
X134852972Y-99038051D01*
X134711311Y-99447969D01*
X134286730Y-99447969D01*
X134481659Y-99050974D01*
X134355494Y-98876100D01*
X133239540Y-98876100D01*
X132985540Y-98876100D01*
X132965540Y-98876100D01*
X132965540Y-98622100D01*
X132985540Y-98622100D01*
X132985540Y-97614100D01*
X133239540Y-97614100D01*
X133239540Y-98622100D01*
X134355494Y-98622100D01*
X134481659Y-98447226D01*
X134279908Y-98036337D01*
X134068018Y-97857690D01*
X165099000Y-97857690D01*
X165099000Y-98714250D01*
X165257750Y-98873000D01*
X166623000Y-98873000D01*
X166623000Y-97507750D01*
X166464250Y-97349000D01*
X165607691Y-97349000D01*
X165374302Y-97445673D01*
X165195673Y-97624301D01*
X165099000Y-97857690D01*
X134068018Y-97857690D01*
X133939218Y-97749098D01*
X133514540Y-97614100D01*
X133239540Y-97614100D01*
X132985540Y-97614100D01*
X132710540Y-97614100D01*
X132460000Y-97693742D01*
X132460000Y-94800980D01*
X135314322Y-94800980D01*
X135438740Y-95426472D01*
X135793053Y-95956739D01*
X136323320Y-96311052D01*
X136948812Y-96435470D01*
X139053588Y-96435470D01*
X139679080Y-96311052D01*
X140209347Y-95956739D01*
X140563660Y-95426472D01*
X140688078Y-94800980D01*
X140563660Y-94175488D01*
X140209347Y-93645221D01*
X139679080Y-93290908D01*
X139053588Y-93166490D01*
X136948812Y-93166490D01*
X136323320Y-93290908D01*
X135793053Y-93645221D01*
X135438740Y-94175488D01*
X135314322Y-94800980D01*
X132460000Y-94800980D01*
X132460000Y-89627000D01*
X133115510Y-89627000D01*
X133115510Y-90627760D01*
X133288529Y-91243585D01*
X133684044Y-91746322D01*
X134241841Y-92059433D01*
X134369646Y-92090379D01*
X134623000Y-91971025D01*
X134623000Y-89627000D01*
X134877000Y-89627000D01*
X134877000Y-91971025D01*
X135130354Y-92090379D01*
X135258159Y-92059433D01*
X135815956Y-91746322D01*
X136211471Y-91243585D01*
X136384490Y-90627760D01*
X136384490Y-89627000D01*
X134877000Y-89627000D01*
X134623000Y-89627000D01*
X133115510Y-89627000D01*
X132460000Y-89627000D01*
X132460000Y-88372240D01*
X133115510Y-88372240D01*
X133115510Y-89373000D01*
X134623000Y-89373000D01*
X134623000Y-87028975D01*
X134877000Y-87028975D01*
X134877000Y-89373000D01*
X136384490Y-89373000D01*
X136384490Y-88372240D01*
X136333998Y-88192521D01*
X139117530Y-88192521D01*
X139117530Y-90807479D01*
X139241948Y-91432971D01*
X139596261Y-91963238D01*
X140126528Y-92317551D01*
X140752020Y-92441969D01*
X141377512Y-92317551D01*
X141907779Y-91963238D01*
X142050260Y-91750000D01*
X149373000Y-91750000D01*
X149373000Y-96250000D01*
X149381685Y-96296159D01*
X149408965Y-96338553D01*
X149450590Y-96366994D01*
X149500000Y-96377000D01*
X155500000Y-96377000D01*
X155546159Y-96368315D01*
X155588553Y-96341035D01*
X155616994Y-96299410D01*
X155627000Y-96250000D01*
X155627000Y-91750000D01*
X155618315Y-91703841D01*
X155591035Y-91661447D01*
X155549410Y-91633006D01*
X155500000Y-91623000D01*
X149500000Y-91623000D01*
X149453841Y-91631685D01*
X149411447Y-91658965D01*
X149383006Y-91700590D01*
X149373000Y-91750000D01*
X142050260Y-91750000D01*
X142262092Y-91432971D01*
X142386510Y-90807479D01*
X142386510Y-88192521D01*
X142262092Y-87567029D01*
X141907779Y-87036762D01*
X141377512Y-86682449D01*
X140752020Y-86558031D01*
X140126528Y-86682449D01*
X139596261Y-87036762D01*
X139241948Y-87567029D01*
X139117530Y-88192521D01*
X136333998Y-88192521D01*
X136211471Y-87756415D01*
X135815956Y-87253678D01*
X135258159Y-86940567D01*
X135130354Y-86909621D01*
X134877000Y-87028975D01*
X134623000Y-87028975D01*
X134369646Y-86909621D01*
X134241841Y-86940567D01*
X133684044Y-87253678D01*
X133288529Y-87756415D01*
X133115510Y-88372240D01*
X132460000Y-88372240D01*
X132460000Y-84960000D01*
X168290000Y-84960000D01*
X168290000Y-97609974D01*
M02*
