G04 #@! TF.FileFunction,Soldermask,Top*
%FSLAX46Y46*%
G04 Gerber Fmt 4.6, Leading zero omitted, Abs format (unit mm)*
G04 Created by KiCad (PCBNEW 4.0.3-stable) date Sun Aug 21 15:47:32 2016*
%MOMM*%
%LPD*%
G01*
G04 APERTURE LIST*
%ADD10C,0.100000*%
%ADD11R,1.700000X1.700000*%
%ADD12C,1.700000*%
%ADD13R,1.150000X0.700000*%
%ADD14R,1.275000X1.125000*%
%ADD15R,2.432000X2.432000*%
%ADD16O,2.432000X2.432000*%
%ADD17C,2.398980*%
%ADD18O,4.400500X2.398980*%
%ADD19O,2.398980X4.400500*%
%ADD20O,2.398980X4.900880*%
%ADD21R,2.400000X2.400000*%
%ADD22C,2.400000*%
G04 APERTURE END LIST*
D10*
D11*
X133350000Y-93980000D03*
D12*
X135850000Y-93980000D03*
D11*
X139700000Y-93980000D03*
D12*
X142200000Y-93980000D03*
D13*
X135710000Y-98310000D03*
X135710000Y-98810000D03*
X135710000Y-99310000D03*
X135710000Y-99810000D03*
X138610000Y-99810000D03*
X138610000Y-99310000D03*
X138610000Y-98810000D03*
X138610000Y-98310000D03*
D14*
X137597500Y-99422500D03*
X137597500Y-98697500D03*
X136722500Y-99422500D03*
D10*
G36*
X137360000Y-99907500D02*
X136085000Y-99407500D01*
X136085000Y-98632500D01*
X137360000Y-98132500D01*
X137360000Y-99907500D01*
X137360000Y-99907500D01*
G37*
D15*
X155448000Y-105918000D03*
D16*
X152908000Y-105918000D03*
D17*
X118110000Y-104140000D03*
X128270000Y-104140000D03*
X118110000Y-107950000D03*
X128270000Y-107950000D03*
X151892000Y-99060000D03*
X141732000Y-99060000D03*
D18*
X126690120Y-100550980D03*
D19*
X123438920Y-95250000D03*
D20*
X129440940Y-95250000D03*
D17*
X145542000Y-93980000D03*
X155702000Y-93980000D03*
D21*
X132080000Y-105410000D03*
D22*
X134620000Y-105410000D03*
D21*
X139700000Y-105410000D03*
D22*
X142240000Y-105410000D03*
D21*
X146050000Y-105664000D03*
D22*
X148590000Y-105664000D03*
M02*
