M48
;DRILL file {KiCad 4.0.3-stable} date Tue Sep  6 15:13:06 2016
;FORMAT={-:-/ absolute / inch / decimal}
FMAT,2
INCH,TZ
T1C0.016
T2C0.020
T3C0.022
T4C0.039
T5C0.040
%
G90
G05
M72
T1
X5.8268Y-3.5039
X5.9843Y-3.6919
X5.9843Y-3.7205
X6.0187Y-3.6919
X6.0187Y-3.7205
X6.1811Y-3.5039
X6.2697Y-3.8091
T4
X5.648Y-4.0945
X5.748Y-4.0945
X5.9433Y-4.1043
X6.0433Y-4.1043
X6.2091Y-4.1043
X6.3091Y-4.1043
T5
X6.565Y-3.8976
X6.565Y-3.9976
T2
X5.2279Y-3.8878G85X5.2534Y-3.8878
G05
X5.2279Y-4.1634G85X5.2534Y-4.1634
G05
T3
X5.347Y-3.9212G85X5.347Y-3.933
G05
X5.347Y-4.1181G85X5.347Y-4.1299
G05
T4
X5.3051Y-3.4843G85X5.3051Y-3.563
G05
X5.4725Y-3.7323G85X5.3938Y-3.7323
G05
X5.5414Y-3.4744G85X5.5414Y-3.5728
G05
T0
M30
