G04 #@! TF.FileFunction,Copper,L2,Bot,Signal*
%FSLAX46Y46*%
G04 Gerber Fmt 4.6, Leading zero omitted, Abs format (unit mm)*
G04 Created by KiCad (PCBNEW 4.0.3-stable) date Sun Aug 21 15:47:32 2016*
%MOMM*%
%LPD*%
G01*
G04 APERTURE LIST*
%ADD10C,0.100000*%
%ADD11R,1.300000X1.300000*%
%ADD12C,1.300000*%
%ADD13R,2.032000X2.032000*%
%ADD14O,2.032000X2.032000*%
%ADD15C,1.998980*%
%ADD16O,4.000500X1.998980*%
%ADD17O,1.998980X4.000500*%
%ADD18O,1.998980X4.500880*%
%ADD19R,2.000000X2.000000*%
%ADD20C,2.000000*%
%ADD21C,0.600000*%
%ADD22C,0.250000*%
%ADD23C,0.254000*%
G04 APERTURE END LIST*
D10*
D11*
X133350000Y-93980000D03*
D12*
X135850000Y-93980000D03*
D11*
X139700000Y-93980000D03*
D12*
X142200000Y-93980000D03*
D13*
X155448000Y-105918000D03*
D14*
X152908000Y-105918000D03*
D15*
X118110000Y-104140000D03*
X128270000Y-104140000D03*
X118110000Y-107950000D03*
X128270000Y-107950000D03*
X151892000Y-99060000D03*
X141732000Y-99060000D03*
D16*
X126690120Y-100550980D03*
D17*
X123438920Y-95250000D03*
D18*
X129440940Y-95250000D03*
D15*
X145542000Y-93980000D03*
X155702000Y-93980000D03*
D19*
X132080000Y-105410000D03*
D20*
X134620000Y-105410000D03*
D19*
X139700000Y-105410000D03*
D20*
X142240000Y-105410000D03*
D19*
X146050000Y-105664000D03*
D20*
X148590000Y-105664000D03*
D21*
X138175199Y-99956413D03*
X136398000Y-99949760D03*
X137597500Y-99422500D03*
X136722500Y-99020000D03*
X130302000Y-102870000D03*
D22*
X130302000Y-102870000D02*
X130302000Y-104832000D01*
X130302000Y-104832000D02*
X130880000Y-105410000D01*
X130880000Y-105410000D02*
X132080000Y-105410000D01*
D23*
G36*
X157353000Y-109526000D02*
X128735938Y-109526000D01*
X129194655Y-109336462D01*
X129654846Y-108877073D01*
X129904206Y-108276547D01*
X129904774Y-107626306D01*
X129656462Y-107025345D01*
X129197073Y-106565154D01*
X128596547Y-106315794D01*
X127946306Y-106315226D01*
X127345345Y-106563538D01*
X126885154Y-107022927D01*
X126635794Y-107623453D01*
X126635226Y-108273694D01*
X126883538Y-108874655D01*
X127342927Y-109334846D01*
X127803277Y-109526000D01*
X118575938Y-109526000D01*
X119034655Y-109336462D01*
X119494846Y-108877073D01*
X119744206Y-108276547D01*
X119744774Y-107626306D01*
X119496462Y-107025345D01*
X119037073Y-106565154D01*
X118436547Y-106315794D01*
X117786306Y-106315226D01*
X117185345Y-106563538D01*
X116725154Y-107022927D01*
X116475794Y-107623453D01*
X116475226Y-108273694D01*
X116723538Y-108874655D01*
X117182927Y-109334846D01*
X117643277Y-109526000D01*
X115189000Y-109526000D01*
X115189000Y-104463694D01*
X116475226Y-104463694D01*
X116723538Y-105064655D01*
X117182927Y-105524846D01*
X117783453Y-105774206D01*
X118433694Y-105774774D01*
X119034655Y-105526462D01*
X119494846Y-105067073D01*
X119744206Y-104466547D01*
X119744208Y-104463694D01*
X126635226Y-104463694D01*
X126883538Y-105064655D01*
X127342927Y-105524846D01*
X127943453Y-105774206D01*
X128593694Y-105774774D01*
X129194655Y-105526462D01*
X129599708Y-105122115D01*
X129599852Y-105122839D01*
X129764599Y-105369401D01*
X130342599Y-105947401D01*
X130432560Y-106007511D01*
X130432560Y-106410000D01*
X130476838Y-106645317D01*
X130615910Y-106861441D01*
X130828110Y-107006431D01*
X131080000Y-107057440D01*
X133080000Y-107057440D01*
X133315317Y-107013162D01*
X133531441Y-106874090D01*
X133628910Y-106731439D01*
X133692637Y-106795278D01*
X134293352Y-107044716D01*
X134943795Y-107045284D01*
X135544943Y-106796894D01*
X136005278Y-106337363D01*
X136254716Y-105736648D01*
X136255284Y-105086205D01*
X136006894Y-104485057D01*
X135931969Y-104410000D01*
X138052560Y-104410000D01*
X138052560Y-106410000D01*
X138096838Y-106645317D01*
X138235910Y-106861441D01*
X138448110Y-107006431D01*
X138700000Y-107057440D01*
X140700000Y-107057440D01*
X140935317Y-107013162D01*
X141151441Y-106874090D01*
X141248910Y-106731439D01*
X141312637Y-106795278D01*
X141913352Y-107044716D01*
X142563795Y-107045284D01*
X143164943Y-106796894D01*
X143625278Y-106337363D01*
X143874716Y-105736648D01*
X143875284Y-105086205D01*
X143700832Y-104664000D01*
X144402560Y-104664000D01*
X144402560Y-106664000D01*
X144446838Y-106899317D01*
X144585910Y-107115441D01*
X144798110Y-107260431D01*
X145050000Y-107311440D01*
X147050000Y-107311440D01*
X147285317Y-107267162D01*
X147501441Y-107128090D01*
X147598910Y-106985439D01*
X147662637Y-107049278D01*
X148263352Y-107298716D01*
X148913795Y-107299284D01*
X149514943Y-107050894D01*
X149975278Y-106591363D01*
X150224716Y-105990648D01*
X150224807Y-105885655D01*
X151257000Y-105885655D01*
X151257000Y-105950345D01*
X151382675Y-106582155D01*
X151740567Y-107117778D01*
X152276190Y-107475670D01*
X152908000Y-107601345D01*
X153539810Y-107475670D01*
X153876001Y-107251034D01*
X153893673Y-107293698D01*
X154072301Y-107472327D01*
X154305690Y-107569000D01*
X155162250Y-107569000D01*
X155321000Y-107410250D01*
X155321000Y-106045000D01*
X155575000Y-106045000D01*
X155575000Y-107410250D01*
X155733750Y-107569000D01*
X156590310Y-107569000D01*
X156823699Y-107472327D01*
X157002327Y-107293698D01*
X157099000Y-107060309D01*
X157099000Y-106203750D01*
X156940250Y-106045000D01*
X155575000Y-106045000D01*
X155321000Y-106045000D01*
X155301000Y-106045000D01*
X155301000Y-105791000D01*
X155321000Y-105791000D01*
X155321000Y-104425750D01*
X155575000Y-104425750D01*
X155575000Y-105791000D01*
X156940250Y-105791000D01*
X157099000Y-105632250D01*
X157099000Y-104775691D01*
X157002327Y-104542302D01*
X156823699Y-104363673D01*
X156590310Y-104267000D01*
X155733750Y-104267000D01*
X155575000Y-104425750D01*
X155321000Y-104425750D01*
X155162250Y-104267000D01*
X154305690Y-104267000D01*
X154072301Y-104363673D01*
X153893673Y-104542302D01*
X153876001Y-104584966D01*
X153539810Y-104360330D01*
X152908000Y-104234655D01*
X152276190Y-104360330D01*
X151740567Y-104718222D01*
X151382675Y-105253845D01*
X151257000Y-105885655D01*
X150224807Y-105885655D01*
X150225284Y-105340205D01*
X149976894Y-104739057D01*
X149517363Y-104278722D01*
X148916648Y-104029284D01*
X148266205Y-104028716D01*
X147665057Y-104277106D01*
X147598426Y-104343621D01*
X147514090Y-104212559D01*
X147301890Y-104067569D01*
X147050000Y-104016560D01*
X145050000Y-104016560D01*
X144814683Y-104060838D01*
X144598559Y-104199910D01*
X144453569Y-104412110D01*
X144402560Y-104664000D01*
X143700832Y-104664000D01*
X143626894Y-104485057D01*
X143167363Y-104024722D01*
X142566648Y-103775284D01*
X141916205Y-103774716D01*
X141315057Y-104023106D01*
X141248426Y-104089621D01*
X141164090Y-103958559D01*
X140951890Y-103813569D01*
X140700000Y-103762560D01*
X138700000Y-103762560D01*
X138464683Y-103806838D01*
X138248559Y-103945910D01*
X138103569Y-104158110D01*
X138052560Y-104410000D01*
X135931969Y-104410000D01*
X135547363Y-104024722D01*
X134946648Y-103775284D01*
X134296205Y-103774716D01*
X133695057Y-104023106D01*
X133628426Y-104089621D01*
X133544090Y-103958559D01*
X133331890Y-103813569D01*
X133080000Y-103762560D01*
X131080000Y-103762560D01*
X131062000Y-103765947D01*
X131062000Y-103432463D01*
X131094192Y-103400327D01*
X131236838Y-103056799D01*
X131237162Y-102684833D01*
X131095117Y-102341057D01*
X130832327Y-102077808D01*
X130488799Y-101935162D01*
X130116833Y-101934838D01*
X129773057Y-102076883D01*
X129509808Y-102339673D01*
X129367162Y-102683201D01*
X129366951Y-102925329D01*
X129197073Y-102755154D01*
X128596547Y-102505794D01*
X127946306Y-102505226D01*
X127345345Y-102753538D01*
X126885154Y-103212927D01*
X126635794Y-103813453D01*
X126635226Y-104463694D01*
X119744208Y-104463694D01*
X119744774Y-103816306D01*
X119496462Y-103215345D01*
X119037073Y-102755154D01*
X118436547Y-102505794D01*
X117786306Y-102505226D01*
X117185345Y-102753538D01*
X116725154Y-103212927D01*
X116475794Y-103813453D01*
X116475226Y-104463694D01*
X115189000Y-104463694D01*
X115189000Y-100550980D01*
X124003242Y-100550980D01*
X124127660Y-101176472D01*
X124481973Y-101706739D01*
X125012240Y-102061052D01*
X125637732Y-102185470D01*
X127742508Y-102185470D01*
X128368000Y-102061052D01*
X128898267Y-101706739D01*
X129252580Y-101176472D01*
X129376998Y-100550980D01*
X129252580Y-99925488D01*
X128898267Y-99395221D01*
X128881016Y-99383694D01*
X140097226Y-99383694D01*
X140345538Y-99984655D01*
X140804927Y-100444846D01*
X141405453Y-100694206D01*
X142055694Y-100694774D01*
X142656655Y-100446462D01*
X142891363Y-100212163D01*
X150919443Y-100212163D01*
X151018042Y-100478965D01*
X151627582Y-100705401D01*
X152277377Y-100681341D01*
X152765958Y-100478965D01*
X152864557Y-100212163D01*
X151892000Y-99239605D01*
X150919443Y-100212163D01*
X142891363Y-100212163D01*
X143116846Y-99987073D01*
X143366206Y-99386547D01*
X143366722Y-98795582D01*
X150246599Y-98795582D01*
X150270659Y-99445377D01*
X150473035Y-99933958D01*
X150739837Y-100032557D01*
X151712395Y-99060000D01*
X152071605Y-99060000D01*
X153044163Y-100032557D01*
X153310965Y-99933958D01*
X153537401Y-99324418D01*
X153513341Y-98674623D01*
X153310965Y-98186042D01*
X153044163Y-98087443D01*
X152071605Y-99060000D01*
X151712395Y-99060000D01*
X150739837Y-98087443D01*
X150473035Y-98186042D01*
X150246599Y-98795582D01*
X143366722Y-98795582D01*
X143366774Y-98736306D01*
X143118462Y-98135345D01*
X142891351Y-97907837D01*
X150919443Y-97907837D01*
X151892000Y-98880395D01*
X152864557Y-97907837D01*
X152765958Y-97641035D01*
X152156418Y-97414599D01*
X151506623Y-97438659D01*
X151018042Y-97641035D01*
X150919443Y-97907837D01*
X142891351Y-97907837D01*
X142659073Y-97675154D01*
X142058547Y-97425794D01*
X141408306Y-97425226D01*
X140807345Y-97673538D01*
X140347154Y-98132927D01*
X140097794Y-98733453D01*
X140097226Y-99383694D01*
X128881016Y-99383694D01*
X128368000Y-99040908D01*
X127742508Y-98916490D01*
X125637732Y-98916490D01*
X125012240Y-99040908D01*
X124481973Y-99395221D01*
X124127660Y-99925488D01*
X124003242Y-100550980D01*
X115189000Y-100550980D01*
X115189000Y-94197612D01*
X121804430Y-94197612D01*
X121804430Y-96302388D01*
X121928848Y-96927880D01*
X122283161Y-97458147D01*
X122813428Y-97812460D01*
X123438920Y-97936878D01*
X124064412Y-97812460D01*
X124594679Y-97458147D01*
X124948992Y-96927880D01*
X125073410Y-96302388D01*
X125073410Y-95377000D01*
X127806450Y-95377000D01*
X127806450Y-96627950D01*
X127979469Y-97243775D01*
X128374984Y-97746512D01*
X128932781Y-98059623D01*
X129060586Y-98090569D01*
X129313940Y-97971215D01*
X129313940Y-95377000D01*
X129567940Y-95377000D01*
X129567940Y-97971215D01*
X129821294Y-98090569D01*
X129949099Y-98059623D01*
X130506896Y-97746512D01*
X130902411Y-97243775D01*
X131075430Y-96627950D01*
X131075430Y-95377000D01*
X129567940Y-95377000D01*
X129313940Y-95377000D01*
X127806450Y-95377000D01*
X125073410Y-95377000D01*
X125073410Y-94197612D01*
X125008652Y-93872050D01*
X127806450Y-93872050D01*
X127806450Y-95123000D01*
X129313940Y-95123000D01*
X129313940Y-92528785D01*
X129567940Y-92528785D01*
X129567940Y-95123000D01*
X131075430Y-95123000D01*
X131075430Y-94265750D01*
X132065000Y-94265750D01*
X132065000Y-94756310D01*
X132161673Y-94989699D01*
X132340302Y-95168327D01*
X132573691Y-95265000D01*
X133064250Y-95265000D01*
X133223000Y-95106250D01*
X133223000Y-94107000D01*
X132223750Y-94107000D01*
X132065000Y-94265750D01*
X131075430Y-94265750D01*
X131075430Y-93872050D01*
X130902411Y-93256225D01*
X130861081Y-93203690D01*
X132065000Y-93203690D01*
X132065000Y-93694250D01*
X132223750Y-93853000D01*
X133223000Y-93853000D01*
X133223000Y-92853750D01*
X133477000Y-92853750D01*
X133477000Y-93853000D01*
X133497000Y-93853000D01*
X133497000Y-94107000D01*
X133477000Y-94107000D01*
X133477000Y-95106250D01*
X133635750Y-95265000D01*
X134126309Y-95265000D01*
X134359698Y-95168327D01*
X134538327Y-94989699D01*
X134635000Y-94756310D01*
X134635000Y-94404433D01*
X134759995Y-94706943D01*
X135121155Y-95068735D01*
X135593276Y-95264777D01*
X136104481Y-95265223D01*
X136576943Y-95070005D01*
X136938735Y-94708845D01*
X137134777Y-94236724D01*
X137135223Y-93725519D01*
X136971798Y-93330000D01*
X138402560Y-93330000D01*
X138402560Y-94630000D01*
X138446838Y-94865317D01*
X138585910Y-95081441D01*
X138798110Y-95226431D01*
X139050000Y-95277440D01*
X140350000Y-95277440D01*
X140585317Y-95233162D01*
X140801441Y-95094090D01*
X140946431Y-94881890D01*
X140947012Y-94879016D01*
X141480590Y-94879016D01*
X141536271Y-95109611D01*
X142019078Y-95277622D01*
X142529428Y-95248083D01*
X142863729Y-95109611D01*
X142919410Y-94879016D01*
X142200000Y-94159605D01*
X141480590Y-94879016D01*
X140947012Y-94879016D01*
X140997440Y-94630000D01*
X140997440Y-94467615D01*
X141070389Y-94643729D01*
X141300984Y-94699410D01*
X142020395Y-93980000D01*
X142379605Y-93980000D01*
X143099016Y-94699410D01*
X143329611Y-94643729D01*
X143447939Y-94303694D01*
X143907226Y-94303694D01*
X144155538Y-94904655D01*
X144614927Y-95364846D01*
X145215453Y-95614206D01*
X145865694Y-95614774D01*
X146466655Y-95366462D01*
X146926846Y-94907073D01*
X147176206Y-94306547D01*
X147176208Y-94303694D01*
X154067226Y-94303694D01*
X154315538Y-94904655D01*
X154774927Y-95364846D01*
X155375453Y-95614206D01*
X156025694Y-95614774D01*
X156626655Y-95366462D01*
X157086846Y-94907073D01*
X157336206Y-94306547D01*
X157336774Y-93656306D01*
X157088462Y-93055345D01*
X156629073Y-92595154D01*
X156028547Y-92345794D01*
X155378306Y-92345226D01*
X154777345Y-92593538D01*
X154317154Y-93052927D01*
X154067794Y-93653453D01*
X154067226Y-94303694D01*
X147176208Y-94303694D01*
X147176774Y-93656306D01*
X146928462Y-93055345D01*
X146469073Y-92595154D01*
X145868547Y-92345794D01*
X145218306Y-92345226D01*
X144617345Y-92593538D01*
X144157154Y-93052927D01*
X143907794Y-93653453D01*
X143907226Y-94303694D01*
X143447939Y-94303694D01*
X143497622Y-94160922D01*
X143468083Y-93650572D01*
X143329611Y-93316271D01*
X143099016Y-93260590D01*
X142379605Y-93980000D01*
X142020395Y-93980000D01*
X141300984Y-93260590D01*
X141070389Y-93316271D01*
X140997440Y-93525902D01*
X140997440Y-93330000D01*
X140953162Y-93094683D01*
X140944347Y-93080984D01*
X141480590Y-93080984D01*
X142200000Y-93800395D01*
X142919410Y-93080984D01*
X142863729Y-92850389D01*
X142380922Y-92682378D01*
X141870572Y-92711917D01*
X141536271Y-92850389D01*
X141480590Y-93080984D01*
X140944347Y-93080984D01*
X140814090Y-92878559D01*
X140601890Y-92733569D01*
X140350000Y-92682560D01*
X139050000Y-92682560D01*
X138814683Y-92726838D01*
X138598559Y-92865910D01*
X138453569Y-93078110D01*
X138402560Y-93330000D01*
X136971798Y-93330000D01*
X136940005Y-93253057D01*
X136578845Y-92891265D01*
X136106724Y-92695223D01*
X135595519Y-92694777D01*
X135123057Y-92889995D01*
X134761265Y-93251155D01*
X134635000Y-93555235D01*
X134635000Y-93203690D01*
X134538327Y-92970301D01*
X134359698Y-92791673D01*
X134126309Y-92695000D01*
X133635750Y-92695000D01*
X133477000Y-92853750D01*
X133223000Y-92853750D01*
X133064250Y-92695000D01*
X132573691Y-92695000D01*
X132340302Y-92791673D01*
X132161673Y-92970301D01*
X132065000Y-93203690D01*
X130861081Y-93203690D01*
X130506896Y-92753488D01*
X129949099Y-92440377D01*
X129821294Y-92409431D01*
X129567940Y-92528785D01*
X129313940Y-92528785D01*
X129060586Y-92409431D01*
X128932781Y-92440377D01*
X128374984Y-92753488D01*
X127979469Y-93256225D01*
X127806450Y-93872050D01*
X125008652Y-93872050D01*
X124948992Y-93572120D01*
X124594679Y-93041853D01*
X124064412Y-92687540D01*
X123438920Y-92563122D01*
X122813428Y-92687540D01*
X122283161Y-93041853D01*
X121928848Y-93572120D01*
X121804430Y-94197612D01*
X115189000Y-94197612D01*
X115189000Y-89789000D01*
X157353000Y-89789000D01*
X157353000Y-109526000D01*
X157353000Y-109526000D01*
G37*
X157353000Y-109526000D02*
X128735938Y-109526000D01*
X129194655Y-109336462D01*
X129654846Y-108877073D01*
X129904206Y-108276547D01*
X129904774Y-107626306D01*
X129656462Y-107025345D01*
X129197073Y-106565154D01*
X128596547Y-106315794D01*
X127946306Y-106315226D01*
X127345345Y-106563538D01*
X126885154Y-107022927D01*
X126635794Y-107623453D01*
X126635226Y-108273694D01*
X126883538Y-108874655D01*
X127342927Y-109334846D01*
X127803277Y-109526000D01*
X118575938Y-109526000D01*
X119034655Y-109336462D01*
X119494846Y-108877073D01*
X119744206Y-108276547D01*
X119744774Y-107626306D01*
X119496462Y-107025345D01*
X119037073Y-106565154D01*
X118436547Y-106315794D01*
X117786306Y-106315226D01*
X117185345Y-106563538D01*
X116725154Y-107022927D01*
X116475794Y-107623453D01*
X116475226Y-108273694D01*
X116723538Y-108874655D01*
X117182927Y-109334846D01*
X117643277Y-109526000D01*
X115189000Y-109526000D01*
X115189000Y-104463694D01*
X116475226Y-104463694D01*
X116723538Y-105064655D01*
X117182927Y-105524846D01*
X117783453Y-105774206D01*
X118433694Y-105774774D01*
X119034655Y-105526462D01*
X119494846Y-105067073D01*
X119744206Y-104466547D01*
X119744208Y-104463694D01*
X126635226Y-104463694D01*
X126883538Y-105064655D01*
X127342927Y-105524846D01*
X127943453Y-105774206D01*
X128593694Y-105774774D01*
X129194655Y-105526462D01*
X129599708Y-105122115D01*
X129599852Y-105122839D01*
X129764599Y-105369401D01*
X130342599Y-105947401D01*
X130432560Y-106007511D01*
X130432560Y-106410000D01*
X130476838Y-106645317D01*
X130615910Y-106861441D01*
X130828110Y-107006431D01*
X131080000Y-107057440D01*
X133080000Y-107057440D01*
X133315317Y-107013162D01*
X133531441Y-106874090D01*
X133628910Y-106731439D01*
X133692637Y-106795278D01*
X134293352Y-107044716D01*
X134943795Y-107045284D01*
X135544943Y-106796894D01*
X136005278Y-106337363D01*
X136254716Y-105736648D01*
X136255284Y-105086205D01*
X136006894Y-104485057D01*
X135931969Y-104410000D01*
X138052560Y-104410000D01*
X138052560Y-106410000D01*
X138096838Y-106645317D01*
X138235910Y-106861441D01*
X138448110Y-107006431D01*
X138700000Y-107057440D01*
X140700000Y-107057440D01*
X140935317Y-107013162D01*
X141151441Y-106874090D01*
X141248910Y-106731439D01*
X141312637Y-106795278D01*
X141913352Y-107044716D01*
X142563795Y-107045284D01*
X143164943Y-106796894D01*
X143625278Y-106337363D01*
X143874716Y-105736648D01*
X143875284Y-105086205D01*
X143700832Y-104664000D01*
X144402560Y-104664000D01*
X144402560Y-106664000D01*
X144446838Y-106899317D01*
X144585910Y-107115441D01*
X144798110Y-107260431D01*
X145050000Y-107311440D01*
X147050000Y-107311440D01*
X147285317Y-107267162D01*
X147501441Y-107128090D01*
X147598910Y-106985439D01*
X147662637Y-107049278D01*
X148263352Y-107298716D01*
X148913795Y-107299284D01*
X149514943Y-107050894D01*
X149975278Y-106591363D01*
X150224716Y-105990648D01*
X150224807Y-105885655D01*
X151257000Y-105885655D01*
X151257000Y-105950345D01*
X151382675Y-106582155D01*
X151740567Y-107117778D01*
X152276190Y-107475670D01*
X152908000Y-107601345D01*
X153539810Y-107475670D01*
X153876001Y-107251034D01*
X153893673Y-107293698D01*
X154072301Y-107472327D01*
X154305690Y-107569000D01*
X155162250Y-107569000D01*
X155321000Y-107410250D01*
X155321000Y-106045000D01*
X155575000Y-106045000D01*
X155575000Y-107410250D01*
X155733750Y-107569000D01*
X156590310Y-107569000D01*
X156823699Y-107472327D01*
X157002327Y-107293698D01*
X157099000Y-107060309D01*
X157099000Y-106203750D01*
X156940250Y-106045000D01*
X155575000Y-106045000D01*
X155321000Y-106045000D01*
X155301000Y-106045000D01*
X155301000Y-105791000D01*
X155321000Y-105791000D01*
X155321000Y-104425750D01*
X155575000Y-104425750D01*
X155575000Y-105791000D01*
X156940250Y-105791000D01*
X157099000Y-105632250D01*
X157099000Y-104775691D01*
X157002327Y-104542302D01*
X156823699Y-104363673D01*
X156590310Y-104267000D01*
X155733750Y-104267000D01*
X155575000Y-104425750D01*
X155321000Y-104425750D01*
X155162250Y-104267000D01*
X154305690Y-104267000D01*
X154072301Y-104363673D01*
X153893673Y-104542302D01*
X153876001Y-104584966D01*
X153539810Y-104360330D01*
X152908000Y-104234655D01*
X152276190Y-104360330D01*
X151740567Y-104718222D01*
X151382675Y-105253845D01*
X151257000Y-105885655D01*
X150224807Y-105885655D01*
X150225284Y-105340205D01*
X149976894Y-104739057D01*
X149517363Y-104278722D01*
X148916648Y-104029284D01*
X148266205Y-104028716D01*
X147665057Y-104277106D01*
X147598426Y-104343621D01*
X147514090Y-104212559D01*
X147301890Y-104067569D01*
X147050000Y-104016560D01*
X145050000Y-104016560D01*
X144814683Y-104060838D01*
X144598559Y-104199910D01*
X144453569Y-104412110D01*
X144402560Y-104664000D01*
X143700832Y-104664000D01*
X143626894Y-104485057D01*
X143167363Y-104024722D01*
X142566648Y-103775284D01*
X141916205Y-103774716D01*
X141315057Y-104023106D01*
X141248426Y-104089621D01*
X141164090Y-103958559D01*
X140951890Y-103813569D01*
X140700000Y-103762560D01*
X138700000Y-103762560D01*
X138464683Y-103806838D01*
X138248559Y-103945910D01*
X138103569Y-104158110D01*
X138052560Y-104410000D01*
X135931969Y-104410000D01*
X135547363Y-104024722D01*
X134946648Y-103775284D01*
X134296205Y-103774716D01*
X133695057Y-104023106D01*
X133628426Y-104089621D01*
X133544090Y-103958559D01*
X133331890Y-103813569D01*
X133080000Y-103762560D01*
X131080000Y-103762560D01*
X131062000Y-103765947D01*
X131062000Y-103432463D01*
X131094192Y-103400327D01*
X131236838Y-103056799D01*
X131237162Y-102684833D01*
X131095117Y-102341057D01*
X130832327Y-102077808D01*
X130488799Y-101935162D01*
X130116833Y-101934838D01*
X129773057Y-102076883D01*
X129509808Y-102339673D01*
X129367162Y-102683201D01*
X129366951Y-102925329D01*
X129197073Y-102755154D01*
X128596547Y-102505794D01*
X127946306Y-102505226D01*
X127345345Y-102753538D01*
X126885154Y-103212927D01*
X126635794Y-103813453D01*
X126635226Y-104463694D01*
X119744208Y-104463694D01*
X119744774Y-103816306D01*
X119496462Y-103215345D01*
X119037073Y-102755154D01*
X118436547Y-102505794D01*
X117786306Y-102505226D01*
X117185345Y-102753538D01*
X116725154Y-103212927D01*
X116475794Y-103813453D01*
X116475226Y-104463694D01*
X115189000Y-104463694D01*
X115189000Y-100550980D01*
X124003242Y-100550980D01*
X124127660Y-101176472D01*
X124481973Y-101706739D01*
X125012240Y-102061052D01*
X125637732Y-102185470D01*
X127742508Y-102185470D01*
X128368000Y-102061052D01*
X128898267Y-101706739D01*
X129252580Y-101176472D01*
X129376998Y-100550980D01*
X129252580Y-99925488D01*
X128898267Y-99395221D01*
X128881016Y-99383694D01*
X140097226Y-99383694D01*
X140345538Y-99984655D01*
X140804927Y-100444846D01*
X141405453Y-100694206D01*
X142055694Y-100694774D01*
X142656655Y-100446462D01*
X142891363Y-100212163D01*
X150919443Y-100212163D01*
X151018042Y-100478965D01*
X151627582Y-100705401D01*
X152277377Y-100681341D01*
X152765958Y-100478965D01*
X152864557Y-100212163D01*
X151892000Y-99239605D01*
X150919443Y-100212163D01*
X142891363Y-100212163D01*
X143116846Y-99987073D01*
X143366206Y-99386547D01*
X143366722Y-98795582D01*
X150246599Y-98795582D01*
X150270659Y-99445377D01*
X150473035Y-99933958D01*
X150739837Y-100032557D01*
X151712395Y-99060000D01*
X152071605Y-99060000D01*
X153044163Y-100032557D01*
X153310965Y-99933958D01*
X153537401Y-99324418D01*
X153513341Y-98674623D01*
X153310965Y-98186042D01*
X153044163Y-98087443D01*
X152071605Y-99060000D01*
X151712395Y-99060000D01*
X150739837Y-98087443D01*
X150473035Y-98186042D01*
X150246599Y-98795582D01*
X143366722Y-98795582D01*
X143366774Y-98736306D01*
X143118462Y-98135345D01*
X142891351Y-97907837D01*
X150919443Y-97907837D01*
X151892000Y-98880395D01*
X152864557Y-97907837D01*
X152765958Y-97641035D01*
X152156418Y-97414599D01*
X151506623Y-97438659D01*
X151018042Y-97641035D01*
X150919443Y-97907837D01*
X142891351Y-97907837D01*
X142659073Y-97675154D01*
X142058547Y-97425794D01*
X141408306Y-97425226D01*
X140807345Y-97673538D01*
X140347154Y-98132927D01*
X140097794Y-98733453D01*
X140097226Y-99383694D01*
X128881016Y-99383694D01*
X128368000Y-99040908D01*
X127742508Y-98916490D01*
X125637732Y-98916490D01*
X125012240Y-99040908D01*
X124481973Y-99395221D01*
X124127660Y-99925488D01*
X124003242Y-100550980D01*
X115189000Y-100550980D01*
X115189000Y-94197612D01*
X121804430Y-94197612D01*
X121804430Y-96302388D01*
X121928848Y-96927880D01*
X122283161Y-97458147D01*
X122813428Y-97812460D01*
X123438920Y-97936878D01*
X124064412Y-97812460D01*
X124594679Y-97458147D01*
X124948992Y-96927880D01*
X125073410Y-96302388D01*
X125073410Y-95377000D01*
X127806450Y-95377000D01*
X127806450Y-96627950D01*
X127979469Y-97243775D01*
X128374984Y-97746512D01*
X128932781Y-98059623D01*
X129060586Y-98090569D01*
X129313940Y-97971215D01*
X129313940Y-95377000D01*
X129567940Y-95377000D01*
X129567940Y-97971215D01*
X129821294Y-98090569D01*
X129949099Y-98059623D01*
X130506896Y-97746512D01*
X130902411Y-97243775D01*
X131075430Y-96627950D01*
X131075430Y-95377000D01*
X129567940Y-95377000D01*
X129313940Y-95377000D01*
X127806450Y-95377000D01*
X125073410Y-95377000D01*
X125073410Y-94197612D01*
X125008652Y-93872050D01*
X127806450Y-93872050D01*
X127806450Y-95123000D01*
X129313940Y-95123000D01*
X129313940Y-92528785D01*
X129567940Y-92528785D01*
X129567940Y-95123000D01*
X131075430Y-95123000D01*
X131075430Y-94265750D01*
X132065000Y-94265750D01*
X132065000Y-94756310D01*
X132161673Y-94989699D01*
X132340302Y-95168327D01*
X132573691Y-95265000D01*
X133064250Y-95265000D01*
X133223000Y-95106250D01*
X133223000Y-94107000D01*
X132223750Y-94107000D01*
X132065000Y-94265750D01*
X131075430Y-94265750D01*
X131075430Y-93872050D01*
X130902411Y-93256225D01*
X130861081Y-93203690D01*
X132065000Y-93203690D01*
X132065000Y-93694250D01*
X132223750Y-93853000D01*
X133223000Y-93853000D01*
X133223000Y-92853750D01*
X133477000Y-92853750D01*
X133477000Y-93853000D01*
X133497000Y-93853000D01*
X133497000Y-94107000D01*
X133477000Y-94107000D01*
X133477000Y-95106250D01*
X133635750Y-95265000D01*
X134126309Y-95265000D01*
X134359698Y-95168327D01*
X134538327Y-94989699D01*
X134635000Y-94756310D01*
X134635000Y-94404433D01*
X134759995Y-94706943D01*
X135121155Y-95068735D01*
X135593276Y-95264777D01*
X136104481Y-95265223D01*
X136576943Y-95070005D01*
X136938735Y-94708845D01*
X137134777Y-94236724D01*
X137135223Y-93725519D01*
X136971798Y-93330000D01*
X138402560Y-93330000D01*
X138402560Y-94630000D01*
X138446838Y-94865317D01*
X138585910Y-95081441D01*
X138798110Y-95226431D01*
X139050000Y-95277440D01*
X140350000Y-95277440D01*
X140585317Y-95233162D01*
X140801441Y-95094090D01*
X140946431Y-94881890D01*
X140947012Y-94879016D01*
X141480590Y-94879016D01*
X141536271Y-95109611D01*
X142019078Y-95277622D01*
X142529428Y-95248083D01*
X142863729Y-95109611D01*
X142919410Y-94879016D01*
X142200000Y-94159605D01*
X141480590Y-94879016D01*
X140947012Y-94879016D01*
X140997440Y-94630000D01*
X140997440Y-94467615D01*
X141070389Y-94643729D01*
X141300984Y-94699410D01*
X142020395Y-93980000D01*
X142379605Y-93980000D01*
X143099016Y-94699410D01*
X143329611Y-94643729D01*
X143447939Y-94303694D01*
X143907226Y-94303694D01*
X144155538Y-94904655D01*
X144614927Y-95364846D01*
X145215453Y-95614206D01*
X145865694Y-95614774D01*
X146466655Y-95366462D01*
X146926846Y-94907073D01*
X147176206Y-94306547D01*
X147176208Y-94303694D01*
X154067226Y-94303694D01*
X154315538Y-94904655D01*
X154774927Y-95364846D01*
X155375453Y-95614206D01*
X156025694Y-95614774D01*
X156626655Y-95366462D01*
X157086846Y-94907073D01*
X157336206Y-94306547D01*
X157336774Y-93656306D01*
X157088462Y-93055345D01*
X156629073Y-92595154D01*
X156028547Y-92345794D01*
X155378306Y-92345226D01*
X154777345Y-92593538D01*
X154317154Y-93052927D01*
X154067794Y-93653453D01*
X154067226Y-94303694D01*
X147176208Y-94303694D01*
X147176774Y-93656306D01*
X146928462Y-93055345D01*
X146469073Y-92595154D01*
X145868547Y-92345794D01*
X145218306Y-92345226D01*
X144617345Y-92593538D01*
X144157154Y-93052927D01*
X143907794Y-93653453D01*
X143907226Y-94303694D01*
X143447939Y-94303694D01*
X143497622Y-94160922D01*
X143468083Y-93650572D01*
X143329611Y-93316271D01*
X143099016Y-93260590D01*
X142379605Y-93980000D01*
X142020395Y-93980000D01*
X141300984Y-93260590D01*
X141070389Y-93316271D01*
X140997440Y-93525902D01*
X140997440Y-93330000D01*
X140953162Y-93094683D01*
X140944347Y-93080984D01*
X141480590Y-93080984D01*
X142200000Y-93800395D01*
X142919410Y-93080984D01*
X142863729Y-92850389D01*
X142380922Y-92682378D01*
X141870572Y-92711917D01*
X141536271Y-92850389D01*
X141480590Y-93080984D01*
X140944347Y-93080984D01*
X140814090Y-92878559D01*
X140601890Y-92733569D01*
X140350000Y-92682560D01*
X139050000Y-92682560D01*
X138814683Y-92726838D01*
X138598559Y-92865910D01*
X138453569Y-93078110D01*
X138402560Y-93330000D01*
X136971798Y-93330000D01*
X136940005Y-93253057D01*
X136578845Y-92891265D01*
X136106724Y-92695223D01*
X135595519Y-92694777D01*
X135123057Y-92889995D01*
X134761265Y-93251155D01*
X134635000Y-93555235D01*
X134635000Y-93203690D01*
X134538327Y-92970301D01*
X134359698Y-92791673D01*
X134126309Y-92695000D01*
X133635750Y-92695000D01*
X133477000Y-92853750D01*
X133223000Y-92853750D01*
X133064250Y-92695000D01*
X132573691Y-92695000D01*
X132340302Y-92791673D01*
X132161673Y-92970301D01*
X132065000Y-93203690D01*
X130861081Y-93203690D01*
X130506896Y-92753488D01*
X129949099Y-92440377D01*
X129821294Y-92409431D01*
X129567940Y-92528785D01*
X129313940Y-92528785D01*
X129060586Y-92409431D01*
X128932781Y-92440377D01*
X128374984Y-92753488D01*
X127979469Y-93256225D01*
X127806450Y-93872050D01*
X125008652Y-93872050D01*
X124948992Y-93572120D01*
X124594679Y-93041853D01*
X124064412Y-92687540D01*
X123438920Y-92563122D01*
X122813428Y-92687540D01*
X122283161Y-93041853D01*
X121928848Y-93572120D01*
X121804430Y-94197612D01*
X115189000Y-94197612D01*
X115189000Y-89789000D01*
X157353000Y-89789000D01*
X157353000Y-109526000D01*
M02*
