G04 #@! TF.FileFunction,Legend,Top*
%FSLAX46Y46*%
G04 Gerber Fmt 4.6, Leading zero omitted, Abs format (unit mm)*
G04 Created by KiCad (PCBNEW 4.0.3-stable) date Sun Aug 21 15:47:32 2016*
%MOMM*%
%LPD*%
G01*
G04 APERTURE LIST*
%ADD10C,0.100000*%
%ADD11C,0.300000*%
%ADD12C,0.150000*%
%ADD13C,0.381000*%
%ADD14C,0.304800*%
G04 APERTURE END LIST*
D10*
X132371334Y-102170667D02*
X132371334Y-101470667D01*
X132604667Y-101970667D01*
X132838000Y-101470667D01*
X132838000Y-102170667D01*
X133571334Y-102104000D02*
X133538000Y-102137333D01*
X133438000Y-102170667D01*
X133371334Y-102170667D01*
X133271334Y-102137333D01*
X133204667Y-102070667D01*
X133171334Y-102004000D01*
X133138000Y-101870667D01*
X133138000Y-101770667D01*
X133171334Y-101637333D01*
X133204667Y-101570667D01*
X133271334Y-101504000D01*
X133371334Y-101470667D01*
X133438000Y-101470667D01*
X133538000Y-101504000D01*
X133571334Y-101537333D01*
X133804667Y-101470667D02*
X134238000Y-101470667D01*
X134004667Y-101737333D01*
X134104667Y-101737333D01*
X134171334Y-101770667D01*
X134204667Y-101804000D01*
X134238000Y-101870667D01*
X134238000Y-102037333D01*
X134204667Y-102104000D01*
X134171334Y-102137333D01*
X134104667Y-102170667D01*
X133904667Y-102170667D01*
X133838000Y-102137333D01*
X133804667Y-102104000D01*
X134838001Y-101704000D02*
X134838001Y-102170667D01*
X134671334Y-101437333D02*
X134504667Y-101937333D01*
X134938001Y-101937333D01*
X135504668Y-101470667D02*
X135371334Y-101470667D01*
X135304668Y-101504000D01*
X135271334Y-101537333D01*
X135204668Y-101637333D01*
X135171334Y-101770667D01*
X135171334Y-102037333D01*
X135204668Y-102104000D01*
X135238001Y-102137333D01*
X135304668Y-102170667D01*
X135438001Y-102170667D01*
X135504668Y-102137333D01*
X135538001Y-102104000D01*
X135571334Y-102037333D01*
X135571334Y-101870667D01*
X135538001Y-101804000D01*
X135504668Y-101770667D01*
X135438001Y-101737333D01*
X135304668Y-101737333D01*
X135238001Y-101770667D01*
X135204668Y-101804000D01*
X135171334Y-101870667D01*
X135804668Y-101470667D02*
X136271335Y-101470667D01*
X135971335Y-102170667D01*
X136471335Y-101470667D02*
X136904668Y-101470667D01*
X136671335Y-101737333D01*
X136771335Y-101737333D01*
X136838002Y-101770667D01*
X136871335Y-101804000D01*
X136904668Y-101870667D01*
X136904668Y-102037333D01*
X136871335Y-102104000D01*
X136838002Y-102137333D01*
X136771335Y-102170667D01*
X136571335Y-102170667D01*
X136504668Y-102137333D01*
X136471335Y-102104000D01*
X138071335Y-102170667D02*
X137738002Y-102170667D01*
X137738002Y-101470667D01*
X138304669Y-102170667D02*
X138304669Y-101704000D01*
X138304669Y-101470667D02*
X138271335Y-101504000D01*
X138304669Y-101537333D01*
X138338002Y-101504000D01*
X138304669Y-101470667D01*
X138304669Y-101537333D01*
X138638002Y-101904000D02*
X139171335Y-101904000D01*
X139738002Y-101804000D02*
X139838002Y-101837333D01*
X139871335Y-101870667D01*
X139904669Y-101937333D01*
X139904669Y-102037333D01*
X139871335Y-102104000D01*
X139838002Y-102137333D01*
X139771335Y-102170667D01*
X139504669Y-102170667D01*
X139504669Y-101470667D01*
X139738002Y-101470667D01*
X139804669Y-101504000D01*
X139838002Y-101537333D01*
X139871335Y-101604000D01*
X139871335Y-101670667D01*
X139838002Y-101737333D01*
X139804669Y-101770667D01*
X139738002Y-101804000D01*
X139504669Y-101804000D01*
X140504669Y-102170667D02*
X140504669Y-101804000D01*
X140471335Y-101737333D01*
X140404669Y-101704000D01*
X140271335Y-101704000D01*
X140204669Y-101737333D01*
X140504669Y-102137333D02*
X140438002Y-102170667D01*
X140271335Y-102170667D01*
X140204669Y-102137333D01*
X140171335Y-102070667D01*
X140171335Y-102004000D01*
X140204669Y-101937333D01*
X140271335Y-101904000D01*
X140438002Y-101904000D01*
X140504669Y-101870667D01*
X140738002Y-101704000D02*
X141004668Y-101704000D01*
X140838002Y-101470667D02*
X140838002Y-102070667D01*
X140871335Y-102137333D01*
X140938002Y-102170667D01*
X141004668Y-102170667D01*
X142171335Y-102104000D02*
X142138001Y-102137333D01*
X142038001Y-102170667D01*
X141971335Y-102170667D01*
X141871335Y-102137333D01*
X141804668Y-102070667D01*
X141771335Y-102004000D01*
X141738001Y-101870667D01*
X141738001Y-101770667D01*
X141771335Y-101637333D01*
X141804668Y-101570667D01*
X141871335Y-101504000D01*
X141971335Y-101470667D01*
X142038001Y-101470667D01*
X142138001Y-101504000D01*
X142171335Y-101537333D01*
X142471335Y-102170667D02*
X142471335Y-101470667D01*
X142771335Y-102170667D02*
X142771335Y-101804000D01*
X142738001Y-101737333D01*
X142671335Y-101704000D01*
X142571335Y-101704000D01*
X142504668Y-101737333D01*
X142471335Y-101770667D01*
X143404668Y-102170667D02*
X143404668Y-101804000D01*
X143371334Y-101737333D01*
X143304668Y-101704000D01*
X143171334Y-101704000D01*
X143104668Y-101737333D01*
X143404668Y-102137333D02*
X143338001Y-102170667D01*
X143171334Y-102170667D01*
X143104668Y-102137333D01*
X143071334Y-102070667D01*
X143071334Y-102004000D01*
X143104668Y-101937333D01*
X143171334Y-101904000D01*
X143338001Y-101904000D01*
X143404668Y-101870667D01*
X143738001Y-102170667D02*
X143738001Y-101704000D01*
X143738001Y-101837333D02*
X143771334Y-101770667D01*
X143804667Y-101737333D01*
X143871334Y-101704000D01*
X143938001Y-101704000D01*
X144471334Y-101704000D02*
X144471334Y-102270667D01*
X144438000Y-102337333D01*
X144404667Y-102370667D01*
X144338000Y-102404000D01*
X144238000Y-102404000D01*
X144171334Y-102370667D01*
X144471334Y-102137333D02*
X144404667Y-102170667D01*
X144271334Y-102170667D01*
X144204667Y-102137333D01*
X144171334Y-102104000D01*
X144138000Y-102037333D01*
X144138000Y-101837333D01*
X144171334Y-101770667D01*
X144204667Y-101737333D01*
X144271334Y-101704000D01*
X144404667Y-101704000D01*
X144471334Y-101737333D01*
X145071333Y-102137333D02*
X145004667Y-102170667D01*
X144871333Y-102170667D01*
X144804667Y-102137333D01*
X144771333Y-102070667D01*
X144771333Y-101804000D01*
X144804667Y-101737333D01*
X144871333Y-101704000D01*
X145004667Y-101704000D01*
X145071333Y-101737333D01*
X145104667Y-101804000D01*
X145104667Y-101870667D01*
X144771333Y-101937333D01*
X145404667Y-102170667D02*
X145404667Y-101704000D01*
X145404667Y-101837333D02*
X145438000Y-101770667D01*
X145471333Y-101737333D01*
X145538000Y-101704000D01*
X145604667Y-101704000D01*
D11*
X152285143Y-108819143D02*
X153428000Y-108819143D01*
X152856571Y-109390571D02*
X152856571Y-108247714D01*
X156070857Y-107962000D02*
X155928000Y-107890571D01*
X155713714Y-107890571D01*
X155499429Y-107962000D01*
X155356571Y-108104857D01*
X155285143Y-108247714D01*
X155213714Y-108533429D01*
X155213714Y-108747714D01*
X155285143Y-109033429D01*
X155356571Y-109176286D01*
X155499429Y-109319143D01*
X155713714Y-109390571D01*
X155856571Y-109390571D01*
X156070857Y-109319143D01*
X156142286Y-109247714D01*
X156142286Y-108747714D01*
X155856571Y-108747714D01*
D12*
X134675000Y-91481000D02*
X134675000Y-96479000D01*
X134815000Y-91489000D02*
X134815000Y-96471000D01*
X134955000Y-91505000D02*
X134955000Y-93885000D01*
X134955000Y-94075000D02*
X134955000Y-96455000D01*
X135095000Y-91529000D02*
X135095000Y-93490000D01*
X135095000Y-94470000D02*
X135095000Y-96431000D01*
X135235000Y-91562000D02*
X135235000Y-93323000D01*
X135235000Y-94637000D02*
X135235000Y-96398000D01*
X135375000Y-91603000D02*
X135375000Y-93216000D01*
X135375000Y-94744000D02*
X135375000Y-96357000D01*
X135515000Y-91653000D02*
X135515000Y-93145000D01*
X135515000Y-94815000D02*
X135515000Y-96307000D01*
X135655000Y-91714000D02*
X135655000Y-93101000D01*
X135655000Y-94859000D02*
X135655000Y-96246000D01*
X135795000Y-91784000D02*
X135795000Y-93082000D01*
X135795000Y-94878000D02*
X135795000Y-96176000D01*
X135935000Y-91866000D02*
X135935000Y-93084000D01*
X135935000Y-94876000D02*
X135935000Y-96094000D01*
X136075000Y-91961000D02*
X136075000Y-93109000D01*
X136075000Y-94851000D02*
X136075000Y-95999000D01*
X136215000Y-92072000D02*
X136215000Y-93157000D01*
X136215000Y-94803000D02*
X136215000Y-95888000D01*
X136355000Y-92200000D02*
X136355000Y-93235000D01*
X136355000Y-94725000D02*
X136355000Y-95760000D01*
X136495000Y-92349000D02*
X136495000Y-93352000D01*
X136495000Y-94608000D02*
X136495000Y-95611000D01*
X136635000Y-92528000D02*
X136635000Y-93540000D01*
X136635000Y-94420000D02*
X136635000Y-95432000D01*
X136775000Y-92747000D02*
X136775000Y-95213000D01*
X136915000Y-93036000D02*
X136915000Y-94924000D01*
X137055000Y-93508000D02*
X137055000Y-94452000D01*
X136750000Y-93980000D02*
G75*
G03X136750000Y-93980000I-900000J0D01*
G01*
X137137500Y-93980000D02*
G75*
G03X137137500Y-93980000I-2537500J0D01*
G01*
X141025000Y-91481000D02*
X141025000Y-96479000D01*
X141165000Y-91489000D02*
X141165000Y-96471000D01*
X141305000Y-91505000D02*
X141305000Y-93885000D01*
X141305000Y-94075000D02*
X141305000Y-96455000D01*
X141445000Y-91529000D02*
X141445000Y-93490000D01*
X141445000Y-94470000D02*
X141445000Y-96431000D01*
X141585000Y-91562000D02*
X141585000Y-93323000D01*
X141585000Y-94637000D02*
X141585000Y-96398000D01*
X141725000Y-91603000D02*
X141725000Y-93216000D01*
X141725000Y-94744000D02*
X141725000Y-96357000D01*
X141865000Y-91653000D02*
X141865000Y-93145000D01*
X141865000Y-94815000D02*
X141865000Y-96307000D01*
X142005000Y-91714000D02*
X142005000Y-93101000D01*
X142005000Y-94859000D02*
X142005000Y-96246000D01*
X142145000Y-91784000D02*
X142145000Y-93082000D01*
X142145000Y-94878000D02*
X142145000Y-96176000D01*
X142285000Y-91866000D02*
X142285000Y-93084000D01*
X142285000Y-94876000D02*
X142285000Y-96094000D01*
X142425000Y-91961000D02*
X142425000Y-93109000D01*
X142425000Y-94851000D02*
X142425000Y-95999000D01*
X142565000Y-92072000D02*
X142565000Y-93157000D01*
X142565000Y-94803000D02*
X142565000Y-95888000D01*
X142705000Y-92200000D02*
X142705000Y-93235000D01*
X142705000Y-94725000D02*
X142705000Y-95760000D01*
X142845000Y-92349000D02*
X142845000Y-93352000D01*
X142845000Y-94608000D02*
X142845000Y-95611000D01*
X142985000Y-92528000D02*
X142985000Y-93540000D01*
X142985000Y-94420000D02*
X142985000Y-95432000D01*
X143125000Y-92747000D02*
X143125000Y-95213000D01*
X143265000Y-93036000D02*
X143265000Y-94924000D01*
X143405000Y-93508000D02*
X143405000Y-94452000D01*
X143100000Y-93980000D02*
G75*
G03X143100000Y-93980000I-900000J0D01*
G01*
X143487500Y-93980000D02*
G75*
G03X143487500Y-93980000I-2537500J0D01*
G01*
X136085000Y-100185000D02*
X138235000Y-100185000D01*
X135260000Y-97935000D02*
X138235000Y-97935000D01*
X154178000Y-107188000D02*
X151638000Y-107188000D01*
X156998000Y-107468000D02*
X155448000Y-107468000D01*
X154178000Y-107188000D02*
X154178000Y-104648000D01*
X155448000Y-104368000D02*
X156998000Y-104368000D01*
X156998000Y-104368000D02*
X156998000Y-107468000D01*
X154178000Y-104648000D02*
X151638000Y-104648000D01*
X151638000Y-104648000D02*
X151638000Y-107188000D01*
X120650000Y-102870000D02*
X125730000Y-102870000D01*
X125730000Y-102870000D02*
X125730000Y-105410000D01*
X125730000Y-105410000D02*
X120650000Y-105410000D01*
X120650000Y-105410000D02*
X120650000Y-102870000D01*
X120650000Y-104140000D02*
X119380000Y-104140000D01*
X125730000Y-104140000D02*
X127000000Y-104140000D01*
X120650000Y-106680000D02*
X125730000Y-106680000D01*
X125730000Y-106680000D02*
X125730000Y-109220000D01*
X125730000Y-109220000D02*
X120650000Y-109220000D01*
X120650000Y-109220000D02*
X120650000Y-106680000D01*
X120650000Y-107950000D02*
X119380000Y-107950000D01*
X125730000Y-107950000D02*
X127000000Y-107950000D01*
X149352000Y-100330000D02*
X144272000Y-100330000D01*
X144272000Y-100330000D02*
X144272000Y-97790000D01*
X144272000Y-97790000D02*
X149352000Y-97790000D01*
X149352000Y-97790000D02*
X149352000Y-100330000D01*
X149352000Y-99060000D02*
X150622000Y-99060000D01*
X144272000Y-99060000D02*
X143002000Y-99060000D01*
D13*
X120390920Y-90749120D02*
X120390920Y-99750880D01*
X115890040Y-90749120D02*
X115890040Y-99750880D01*
X115890040Y-99750880D02*
X130489960Y-99750880D01*
X130489960Y-99750880D02*
X130489960Y-90749120D01*
X130489960Y-90749120D02*
X115890040Y-90749120D01*
D12*
X148082000Y-92710000D02*
X153162000Y-92710000D01*
X153162000Y-92710000D02*
X153162000Y-95250000D01*
X153162000Y-95250000D02*
X148082000Y-95250000D01*
X148082000Y-95250000D02*
X148082000Y-92710000D01*
X148082000Y-93980000D02*
X146812000Y-93980000D01*
X153162000Y-93980000D02*
X154432000Y-93980000D01*
X131881000Y-106724000D02*
X131881000Y-106524000D01*
X131881000Y-104130000D02*
X131881000Y-104310000D01*
X135108744Y-104440357D02*
G75*
G03X131881000Y-104124000I-1727744J-1003643D01*
G01*
X134433006Y-104310932D02*
G75*
G03X132330000Y-104310000I-1052006J-1133068D01*
G01*
X131893780Y-106750726D02*
G75*
G03X135131000Y-106404000I1497220J1306726D01*
G01*
X132367111Y-106523253D02*
G75*
G03X134415000Y-106504000I1013889J1079253D01*
G01*
X139501000Y-106724000D02*
X139501000Y-106524000D01*
X139501000Y-104130000D02*
X139501000Y-104310000D01*
X142728744Y-104440357D02*
G75*
G03X139501000Y-104124000I-1727744J-1003643D01*
G01*
X142053006Y-104310932D02*
G75*
G03X139950000Y-104310000I-1052006J-1133068D01*
G01*
X139513780Y-106750726D02*
G75*
G03X142751000Y-106404000I1497220J1306726D01*
G01*
X139987111Y-106523253D02*
G75*
G03X142035000Y-106504000I1013889J1079253D01*
G01*
X145851000Y-106978000D02*
X145851000Y-106778000D01*
X145851000Y-104384000D02*
X145851000Y-104564000D01*
X149078744Y-104694357D02*
G75*
G03X145851000Y-104378000I-1727744J-1003643D01*
G01*
X148403006Y-104564932D02*
G75*
G03X146300000Y-104564000I-1052006J-1133068D01*
G01*
X145863780Y-107004726D02*
G75*
G03X149101000Y-106658000I1497220J1306726D01*
G01*
X146337111Y-106777253D02*
G75*
G03X148385000Y-106758000I1013889J1079253D01*
G01*
X134433334Y-90537143D02*
X134385715Y-90584762D01*
X134242858Y-90632381D01*
X134147620Y-90632381D01*
X134004762Y-90584762D01*
X133909524Y-90489524D01*
X133861905Y-90394286D01*
X133814286Y-90203810D01*
X133814286Y-90060952D01*
X133861905Y-89870476D01*
X133909524Y-89775238D01*
X134004762Y-89680000D01*
X134147620Y-89632381D01*
X134242858Y-89632381D01*
X134385715Y-89680000D01*
X134433334Y-89727619D01*
X135385715Y-90632381D02*
X134814286Y-90632381D01*
X135100000Y-90632381D02*
X135100000Y-89632381D01*
X135004762Y-89775238D01*
X134909524Y-89870476D01*
X134814286Y-89918095D01*
X140783334Y-90537143D02*
X140735715Y-90584762D01*
X140592858Y-90632381D01*
X140497620Y-90632381D01*
X140354762Y-90584762D01*
X140259524Y-90489524D01*
X140211905Y-90394286D01*
X140164286Y-90203810D01*
X140164286Y-90060952D01*
X140211905Y-89870476D01*
X140259524Y-89775238D01*
X140354762Y-89680000D01*
X140497620Y-89632381D01*
X140592858Y-89632381D01*
X140735715Y-89680000D01*
X140783334Y-89727619D01*
X141164286Y-89727619D02*
X141211905Y-89680000D01*
X141307143Y-89632381D01*
X141545239Y-89632381D01*
X141640477Y-89680000D01*
X141688096Y-89727619D01*
X141735715Y-89822857D01*
X141735715Y-89918095D01*
X141688096Y-90060952D01*
X141116667Y-90632381D01*
X141735715Y-90632381D01*
X136350476Y-97462381D02*
X136350476Y-96462381D01*
X136683810Y-97176667D01*
X137017143Y-96462381D01*
X137017143Y-97462381D01*
X138017143Y-97462381D02*
X137445714Y-97462381D01*
X137731428Y-97462381D02*
X137731428Y-96462381D01*
X137636190Y-96605238D01*
X137540952Y-96700476D01*
X137445714Y-96748095D01*
X161000381Y-106656095D02*
X160000381Y-106656095D01*
X160000381Y-106275142D01*
X160048000Y-106179904D01*
X160095619Y-106132285D01*
X160190857Y-106084666D01*
X160333714Y-106084666D01*
X160428952Y-106132285D01*
X160476571Y-106179904D01*
X160524190Y-106275142D01*
X160524190Y-106656095D01*
X161000381Y-105132285D02*
X161000381Y-105703714D01*
X161000381Y-105418000D02*
X160000381Y-105418000D01*
X160143238Y-105513238D01*
X160238476Y-105608476D01*
X160286095Y-105703714D01*
X123272254Y-101092261D02*
X122938920Y-100616070D01*
X122700825Y-101092261D02*
X122700825Y-100092261D01*
X123081778Y-100092261D01*
X123177016Y-100139880D01*
X123224635Y-100187499D01*
X123272254Y-100282737D01*
X123272254Y-100425594D01*
X123224635Y-100520832D01*
X123177016Y-100568451D01*
X123081778Y-100616070D01*
X122700825Y-100616070D01*
X124224635Y-101092261D02*
X123653206Y-101092261D01*
X123938920Y-101092261D02*
X123938920Y-100092261D01*
X123843682Y-100235118D01*
X123748444Y-100330356D01*
X123653206Y-100377975D01*
X123272254Y-104902261D02*
X122938920Y-104426070D01*
X122700825Y-104902261D02*
X122700825Y-103902261D01*
X123081778Y-103902261D01*
X123177016Y-103949880D01*
X123224635Y-103997499D01*
X123272254Y-104092737D01*
X123272254Y-104235594D01*
X123224635Y-104330832D01*
X123177016Y-104378451D01*
X123081778Y-104426070D01*
X122700825Y-104426070D01*
X123653206Y-103997499D02*
X123700825Y-103949880D01*
X123796063Y-103902261D01*
X124034159Y-103902261D01*
X124129397Y-103949880D01*
X124177016Y-103997499D01*
X124224635Y-104092737D01*
X124224635Y-104187975D01*
X124177016Y-104330832D01*
X123605587Y-104902261D01*
X124224635Y-104902261D01*
X146396414Y-103012501D02*
X146063080Y-102536310D01*
X145824985Y-103012501D02*
X145824985Y-102012501D01*
X146205938Y-102012501D01*
X146301176Y-102060120D01*
X146348795Y-102107739D01*
X146396414Y-102202977D01*
X146396414Y-102345834D01*
X146348795Y-102441072D01*
X146301176Y-102488691D01*
X146205938Y-102536310D01*
X145824985Y-102536310D01*
X146729747Y-102012501D02*
X147348795Y-102012501D01*
X147015461Y-102393453D01*
X147158319Y-102393453D01*
X147253557Y-102441072D01*
X147301176Y-102488691D01*
X147348795Y-102583930D01*
X147348795Y-102822025D01*
X147301176Y-102917263D01*
X147253557Y-102964882D01*
X147158319Y-103012501D01*
X146872604Y-103012501D01*
X146777366Y-102964882D01*
X146729747Y-102917263D01*
D14*
X113655929Y-95758000D02*
X114744500Y-95758000D01*
X114962214Y-95830572D01*
X115107357Y-95975715D01*
X115179929Y-96193429D01*
X115179929Y-96338572D01*
X115179929Y-94234000D02*
X115179929Y-95104857D01*
X115179929Y-94669429D02*
X113655929Y-94669429D01*
X113873643Y-94814572D01*
X114018786Y-94959714D01*
X114091357Y-95104857D01*
X132479869Y-98479428D02*
X130955869Y-98479428D01*
X132407297Y-98479428D02*
X132479869Y-98624571D01*
X132479869Y-98914857D01*
X132407297Y-99059999D01*
X132334726Y-99132571D01*
X132189583Y-99205142D01*
X131754154Y-99205142D01*
X131609011Y-99132571D01*
X131536440Y-99059999D01*
X131463869Y-98914857D01*
X131463869Y-98624571D01*
X131536440Y-98479428D01*
X132407297Y-97100571D02*
X132479869Y-97245714D01*
X132479869Y-97536000D01*
X132407297Y-97681142D01*
X132334726Y-97753714D01*
X132189583Y-97826285D01*
X131754154Y-97826285D01*
X131609011Y-97753714D01*
X131536440Y-97681142D01*
X131463869Y-97536000D01*
X131463869Y-97245714D01*
X131536440Y-97100571D01*
X132625011Y-96810285D02*
X132625011Y-95649142D01*
X131463869Y-95286285D02*
X132770154Y-95286285D01*
X132915297Y-95358856D01*
X132987869Y-95503999D01*
X132987869Y-95576571D01*
X130955869Y-95286285D02*
X131028440Y-95358856D01*
X131101011Y-95286285D01*
X131028440Y-95213713D01*
X130955869Y-95286285D01*
X131101011Y-95286285D01*
X132479869Y-93907428D02*
X131681583Y-93907428D01*
X131536440Y-93979999D01*
X131463869Y-94125142D01*
X131463869Y-94415428D01*
X131536440Y-94560571D01*
X132407297Y-93907428D02*
X132479869Y-94052571D01*
X132479869Y-94415428D01*
X132407297Y-94560571D01*
X132262154Y-94633142D01*
X132117011Y-94633142D01*
X131971869Y-94560571D01*
X131899297Y-94415428D01*
X131899297Y-94052571D01*
X131826726Y-93907428D01*
X132407297Y-92528571D02*
X132479869Y-92673714D01*
X132479869Y-92964000D01*
X132407297Y-93109142D01*
X132334726Y-93181714D01*
X132189583Y-93254285D01*
X131754154Y-93254285D01*
X131609011Y-93181714D01*
X131536440Y-93109142D01*
X131463869Y-92964000D01*
X131463869Y-92673714D01*
X131536440Y-92528571D01*
X132479869Y-91875428D02*
X130955869Y-91875428D01*
X131899297Y-91730285D02*
X132479869Y-91294856D01*
X131463869Y-91294856D02*
X132044440Y-91875428D01*
D12*
X150704254Y-90932261D02*
X150370920Y-90456070D01*
X150132825Y-90932261D02*
X150132825Y-89932261D01*
X150513778Y-89932261D01*
X150609016Y-89979880D01*
X150656635Y-90027499D01*
X150704254Y-90122737D01*
X150704254Y-90265594D01*
X150656635Y-90360832D01*
X150609016Y-90408451D01*
X150513778Y-90456070D01*
X150132825Y-90456070D01*
X151561397Y-90265594D02*
X151561397Y-90932261D01*
X151323301Y-89884642D02*
X151085206Y-90598928D01*
X151704254Y-90598928D01*
X132251905Y-108922381D02*
X132251905Y-107922381D01*
X132632858Y-107922381D01*
X132728096Y-107970000D01*
X132775715Y-108017619D01*
X132823334Y-108112857D01*
X132823334Y-108255714D01*
X132775715Y-108350952D01*
X132728096Y-108398571D01*
X132632858Y-108446190D01*
X132251905Y-108446190D01*
X133251905Y-108922381D02*
X133251905Y-107922381D01*
X133632858Y-107922381D01*
X133728096Y-107970000D01*
X133775715Y-108017619D01*
X133823334Y-108112857D01*
X133823334Y-108255714D01*
X133775715Y-108350952D01*
X133728096Y-108398571D01*
X133632858Y-108446190D01*
X133251905Y-108446190D01*
X134823334Y-108922381D02*
X134490000Y-108446190D01*
X134251905Y-108922381D02*
X134251905Y-107922381D01*
X134632858Y-107922381D01*
X134728096Y-107970000D01*
X134775715Y-108017619D01*
X134823334Y-108112857D01*
X134823334Y-108255714D01*
X134775715Y-108350952D01*
X134728096Y-108398571D01*
X134632858Y-108446190D01*
X134251905Y-108446190D01*
X135775715Y-108922381D02*
X135204286Y-108922381D01*
X135490000Y-108922381D02*
X135490000Y-107922381D01*
X135394762Y-108065238D01*
X135299524Y-108160476D01*
X135204286Y-108208095D01*
X130128095Y-107602381D02*
X130128095Y-106602381D01*
X130699524Y-107602381D02*
X130270952Y-107030952D01*
X130699524Y-106602381D02*
X130128095Y-107173810D01*
X140419524Y-108827143D02*
X140371905Y-108874762D01*
X140229048Y-108922381D01*
X140133810Y-108922381D01*
X139990952Y-108874762D01*
X139895714Y-108779524D01*
X139848095Y-108684286D01*
X139800476Y-108493810D01*
X139800476Y-108350952D01*
X139848095Y-108160476D01*
X139895714Y-108065238D01*
X139990952Y-107970000D01*
X140133810Y-107922381D01*
X140229048Y-107922381D01*
X140371905Y-107970000D01*
X140419524Y-108017619D01*
X140848095Y-108922381D02*
X140848095Y-107922381D01*
X140848095Y-108398571D02*
X141419524Y-108398571D01*
X141419524Y-108922381D02*
X141419524Y-107922381D01*
X142419524Y-107970000D02*
X142324286Y-107922381D01*
X142181429Y-107922381D01*
X142038571Y-107970000D01*
X141943333Y-108065238D01*
X141895714Y-108160476D01*
X141848095Y-108350952D01*
X141848095Y-108493810D01*
X141895714Y-108684286D01*
X141943333Y-108779524D01*
X142038571Y-108874762D01*
X142181429Y-108922381D01*
X142276667Y-108922381D01*
X142419524Y-108874762D01*
X142467143Y-108827143D01*
X142467143Y-108493810D01*
X142276667Y-108493810D01*
X143419524Y-108922381D02*
X142848095Y-108922381D01*
X143133809Y-108922381D02*
X143133809Y-107922381D01*
X143038571Y-108065238D01*
X142943333Y-108160476D01*
X142848095Y-108208095D01*
X137748095Y-107602381D02*
X137748095Y-106602381D01*
X138319524Y-107602381D02*
X137890952Y-107030952D01*
X138319524Y-106602381D02*
X137748095Y-107173810D01*
X145700953Y-108640571D02*
X145367619Y-108640571D01*
X145367619Y-109164381D02*
X145367619Y-108164381D01*
X145843810Y-108164381D01*
X146177143Y-108878667D02*
X146653334Y-108878667D01*
X146081905Y-109164381D02*
X146415238Y-108164381D01*
X146748572Y-109164381D01*
X147034286Y-109116762D02*
X147177143Y-109164381D01*
X147415239Y-109164381D01*
X147510477Y-109116762D01*
X147558096Y-109069143D01*
X147605715Y-108973905D01*
X147605715Y-108878667D01*
X147558096Y-108783429D01*
X147510477Y-108735810D01*
X147415239Y-108688190D01*
X147224762Y-108640571D01*
X147129524Y-108592952D01*
X147081905Y-108545333D01*
X147034286Y-108450095D01*
X147034286Y-108354857D01*
X147081905Y-108259619D01*
X147129524Y-108212000D01*
X147224762Y-108164381D01*
X147462858Y-108164381D01*
X147605715Y-108212000D01*
X147891429Y-108164381D02*
X148462858Y-108164381D01*
X148177143Y-109164381D02*
X148177143Y-108164381D01*
X149320001Y-109164381D02*
X148748572Y-109164381D01*
X149034286Y-109164381D02*
X149034286Y-108164381D01*
X148939048Y-108307238D01*
X148843810Y-108402476D01*
X148748572Y-108450095D01*
X144098095Y-107856381D02*
X144098095Y-106856381D01*
X144669524Y-107856381D02*
X144240952Y-107284952D01*
X144669524Y-106856381D02*
X144098095Y-107427810D01*
M02*
